<?xml version="1.0" encoding="UTF-8"?>
<svg xmlns="http://www.w3.org/2000/svg" width="50.0000mm" height="50.0000mm" viewBox="0 0 50.000000 50.000000">
  <rect width="50.000000" height="50.000000" fill="white" />
  <g fill="none" stroke="black" stroke-width="0.15" stroke-linecap="round" stroke-linejoin="round">
    <line x1="33.604911" y1="40.626686" x2="33.605385" y2="40.642596" /><line x1="33.604911" y1="40.542658" x2="33.604911" y2="40.626686" /><line x1="35.245647" y1="39.680277" x2="38.429824" y2="39.680277" /><line x1="37.462278" y1="33.426339" x2="37.454670" y2="33.437963" /><line x1="33.608915" y1="40.468956" x2="33.606855" y2="40.490133" /><line x1="33.606855" y1="40.490133" x2="33.605446" y2="40.514455" /><line x1="33.605446" y1="40.514455" x2="33.604911" y2="40.542658" /><line x1="33.617558" y1="40.419235" x2="33.614368" y2="40.433902" /><line x1="33.614368" y1="40.433902" x2="33.611459" y2="40.450359" /><line x1="33.611459" y1="40.450359" x2="33.608915" y2="40.468956" /><line x1="37.564530" y1="33.338955" x2="37.543231" y2="33.349114" /><line x1="37.543231" y1="33.349114" x2="37.521962" y2="33.362799" /><line x1="33.746430" y1="40.768204" x2="38.416556" y2="40.768204" /><line x1="33.726630" y1="40.767459" x2="33.746430" y2="40.768204" /><line x1="33.605385" y1="40.642596" x2="33.607052" y2="40.659356" /><line x1="33.703517" y1="40.764338" x2="33.726630" y2="40.767459" /><line x1="33.607052" y1="40.659356" x2="33.611063" y2="40.679545" /><line x1="33.684517" y1="40.759360" x2="33.703517" y2="40.764338" /><line x1="33.611063" y1="40.679545" x2="33.618268" y2="40.700282" /><line x1="33.664726" y1="40.750879" x2="33.684517" y2="40.759360" /><line x1="33.618268" y1="40.700282" x2="33.629493" y2="40.720066" /><line x1="33.629493" y1="40.720066" x2="33.646244" y2="40.738316" /><line x1="33.646244" y1="40.738316" x2="33.664726" y2="40.750879" /><line x1="37.507493" y1="33.374445" x2="37.492558" y2="33.388746" /><line x1="37.626460" y1="33.325502" x2="37.609779" y2="33.327070" /><line x1="37.521962" y1="33.362799" x2="37.507493" y2="33.374445" /><line x1="37.609779" y1="33.327070" x2="37.586484" y2="33.331688" /><line x1="37.586484" y1="33.331688" x2="37.564530" y2="33.338955" /><line x1="33.636411" y1="40.363663" x2="33.628241" y2="40.383443" /><line x1="33.628241" y1="40.383443" x2="33.620961" y2="40.406080" /><line x1="33.620961" y1="40.406080" x2="33.617558" y2="40.419235" /><line x1="38.670849" y1="33.479976" x2="35.245647" y2="39.680277" /><line x1="37.454670" y1="33.437963" x2="33.646925" y2="40.343647" /><line x1="33.646925" y1="40.343647" x2="33.636411" y2="40.363663" /><line x1="38.676562" y1="33.350071" x2="38.691823" y2="33.368653" /><line x1="38.691823" y1="33.368653" x2="38.698040" y2="33.392462" /><line x1="38.655370" y1="33.337863" x2="38.676562" y2="33.350071" /><line x1="38.698040" y1="33.392462" x2="38.696594" y2="33.414495" /><line x1="38.635044" y1="33.331449" x2="38.655370" y2="33.337863" /><line x1="38.696594" y1="33.414495" x2="38.690776" y2="33.436512" /><line x1="38.610884" y1="33.327286" x2="38.635044" y2="33.331449" /><line x1="38.690776" y1="33.436512" x2="38.684938" y2="33.451593" /><line x1="38.587005" y1="33.325483" x2="38.610884" y2="33.327286" /><line x1="38.684938" y1="33.451593" x2="38.675673" y2="33.471030" /><line x1="38.571342" y1="33.325191" x2="38.587005" y2="33.325483" /><line x1="38.675673" y1="33.471030" x2="38.670849" y2="33.479976" /><line x1="38.571342" y1="33.325191" x2="37.638202" y2="33.325191" /><line x1="37.638202" y1="33.325191" x2="37.626460" y2="33.325502" /><line x1="37.476960" y1="33.406522" x2="37.462278" y2="33.426339" /><line x1="37.492558" y1="33.388746" x2="37.476960" y2="33.406522" /><line x1="40.793633" y1="39.821795" x2="40.793633" y2="40.626686" /><line x1="40.793159" y1="39.805883" x2="40.793633" y2="39.821795" /><line x1="40.652115" y1="39.680277" x2="40.671914" y2="39.681023" /><line x1="40.791492" y1="39.789124" x2="40.793159" y2="39.805883" /><line x1="40.671914" y1="39.681023" x2="40.695028" y2="39.684142" /><line x1="40.787480" y1="39.768935" x2="40.791492" y2="39.789124" /><line x1="40.695028" y1="39.684142" x2="40.714027" y2="39.689121" /><line x1="40.780275" y1="39.748197" x2="40.787480" y2="39.768935" /><line x1="40.714027" y1="39.689121" x2="40.733818" y2="39.697600" /><line x1="40.769052" y1="39.728415" x2="40.780275" y2="39.748197" /><line x1="40.752300" y1="39.710166" x2="40.769052" y2="39.728415" /><line x1="40.733818" y1="39.697600" x2="40.752300" y2="39.710166" /><line x1="38.457890" y1="42.564795" x2="38.441138" y2="42.546543" /><line x1="38.476372" y1="42.577360" x2="38.457890" y2="42.564795" /><line x1="39.577454" y1="40.768204" x2="39.577454" y2="42.453163" /><line x1="39.451847" y1="42.594210" x2="39.435936" y2="42.594685" /><line x1="39.577454" y1="42.453163" x2="39.576709" y2="42.472963" /><line x1="39.468607" y1="42.592543" x2="39.451847" y2="42.594210" /><line x1="39.576709" y1="42.472963" x2="39.573589" y2="42.496077" /><line x1="39.488796" y1="42.588531" x2="39.468607" y2="42.592543" /><line x1="39.573589" y1="42.496077" x2="39.568610" y2="42.515078" /><line x1="39.509534" y1="42.581326" x2="39.488796" y2="42.588531" /><line x1="39.568610" y1="42.515078" x2="39.560130" y2="42.534868" /><line x1="39.529316" y1="42.570103" x2="39.509534" y2="42.581326" /><line x1="39.547566" y1="42.553350" x2="39.529316" y2="42.570103" /><line x1="39.560130" y1="42.534868" x2="39.547566" y2="42.553350" /><line x1="39.577454" y1="39.680277" x2="40.652115" y2="39.680277" /><line x1="40.652115" y1="40.768204" x2="39.577454" y2="40.768204" /><line x1="40.668027" y1="40.767729" x2="40.652115" y2="40.768204" /><line x1="40.793633" y1="40.626686" x2="40.792888" y2="40.646483" /><line x1="40.684785" y1="40.766064" x2="40.668027" y2="40.767729" /><line x1="40.792888" y1="40.646483" x2="40.789767" y2="40.669600" /><line x1="40.704974" y1="40.762052" x2="40.684785" y2="40.766064" /><line x1="40.789767" y1="40.669600" x2="40.784789" y2="40.688599" /><line x1="40.725713" y1="40.754847" x2="40.704974" y2="40.762052" /><line x1="40.784789" y1="40.688599" x2="40.776310" y2="40.708388" /><line x1="40.745495" y1="40.743623" x2="40.725713" y2="40.754847" /><line x1="40.763744" y1="40.726870" x2="40.745495" y2="40.743623" /><line x1="40.776310" y1="40.708388" x2="40.763744" y2="40.726870" /><line x1="38.429824" y1="39.680277" x2="38.429824" y2="36.580127" /><line x1="38.555430" y1="36.439082" x2="38.571342" y2="36.438607" /><line x1="38.429824" y1="36.580127" x2="38.430570" y2="36.560328" /><line x1="38.538671" y1="36.440748" x2="38.555430" y2="36.439082" /><line x1="38.430570" y1="36.560328" x2="38.433689" y2="36.537213" /><line x1="38.518482" y1="36.444759" x2="38.538671" y2="36.440748" /><line x1="38.433689" y1="36.537213" x2="38.438668" y2="36.518213" /><line x1="38.497745" y1="36.451965" x2="38.518482" y2="36.444759" /><line x1="38.438668" y1="36.518213" x2="38.447147" y2="36.498423" /><line x1="38.477962" y1="36.463188" x2="38.497745" y2="36.451965" /><line x1="38.459713" y1="36.479941" x2="38.477962" y2="36.463188" /><line x1="38.447147" y1="36.498423" x2="38.459713" y2="36.479941" /><line x1="38.441138" y1="42.546543" x2="38.429914" y2="42.526762" /><line x1="38.496162" y1="42.585838" x2="38.476372" y2="42.577360" /><line x1="38.429914" y1="42.526762" x2="38.422709" y2="42.506025" /><line x1="38.515162" y1="42.590816" x2="38.496162" y2="42.585838" /><line x1="38.422709" y1="42.506025" x2="38.418697" y2="42.485836" /><line x1="38.538276" y1="42.593937" x2="38.515162" y2="42.590816" /><line x1="38.418697" y1="42.485836" x2="38.417030" y2="42.469076" /><line x1="38.558076" y1="42.594685" x2="38.538276" y2="42.593937" /><line x1="38.417030" y1="42.469076" x2="38.416556" y2="42.453163" /><line x1="39.435936" y1="42.594685" x2="38.558076" y2="42.594685" /><line x1="38.416556" y1="40.768204" x2="38.416556" y2="42.453163" /><line x1="39.577454" y1="36.580127" x2="39.577454" y2="39.680277" /><line x1="38.571342" y1="36.438607" x2="39.435936" y2="36.438607" /><line x1="39.576980" y1="36.564215" x2="39.577454" y2="36.580127" /><line x1="39.435936" y1="36.438607" x2="39.455735" y2="36.439353" /><line x1="39.575314" y1="36.547456" x2="39.576980" y2="36.564215" /><line x1="39.455735" y1="36.439353" x2="39.478849" y2="36.442473" /><line x1="39.571302" y1="36.527266" x2="39.575314" y2="36.547456" /><line x1="39.478849" y1="36.442473" x2="39.497849" y2="36.447452" /><line x1="39.564096" y1="36.506529" x2="39.571302" y2="36.527266" /><line x1="39.497849" y1="36.447452" x2="39.517640" y2="36.455932" /><line x1="39.552873" y1="36.486747" x2="39.564096" y2="36.506529" /><line x1="39.536121" y1="36.468496" x2="39.552873" y2="36.486747" /><line x1="39.517640" y1="36.455932" x2="39.536121" y2="36.468496" /><line x1="11.167249" y1="37.313216" x2="11.183484" y2="37.312732" /><line x1="11.150148" y1="37.314917" x2="11.167249" y2="37.313216" /><line x1="11.129547" y1="37.319010" x2="11.150148" y2="37.314917" /><line x1="11.108388" y1="37.326362" x2="11.129547" y2="37.319010" /><line x1="11.088204" y1="37.337814" x2="11.108388" y2="37.326362" /><line x1="11.069582" y1="37.354907" x2="11.088204" y2="37.337814" /><line x1="11.056761" y1="37.373764" x2="11.069582" y2="37.354907" /><line x1="11.048110" y1="37.393958" x2="11.056761" y2="37.373764" /><line x1="11.043030" y1="37.413344" x2="11.048110" y2="37.393958" /><line x1="11.039846" y1="37.436929" x2="11.043030" y2="37.413344" /><line x1="11.039085" y1="37.457131" x2="11.039846" y2="37.436929" /><line x1="2.500000" y1="0.000000" x2="47.500000" y2="0.000000" /><line x1="12.453748" y1="37.312732" x2="11.183484" y2="37.312732" /><line x1="50.000000" y1="2.500000" x2="50.000000" y2="47.500000" /><line x1="13.723811" y1="36.941103" x2="13.745444" y2="36.922402" /><line x1="13.683054" y1="36.974076" x2="13.723811" y2="36.941103" /><line x1="13.639974" y1="37.006025" x2="13.683054" y2="36.974076" /><line x1="13.594300" y1="37.036999" x2="13.639974" y2="37.006025" /><line x1="13.545713" y1="37.067020" x2="13.594300" y2="37.036999" /><line x1="13.493837" y1="37.096101" x2="13.545713" y2="37.067020" /><line x1="13.438226" y1="37.124220" x2="13.493837" y2="37.096101" /><line x1="13.378346" y1="37.151336" x2="13.438226" y2="37.124220" /><line x1="13.313563" y1="37.177367" x2="13.378346" y2="37.151336" /><line x1="13.243111" y1="37.202187" x2="13.313563" y2="37.177367" /><line x1="13.166292" y1="37.225546" x2="13.243111" y2="37.202187" /><line x1="13.091044" y1="37.245073" x2="13.166292" y2="37.225546" /><line x1="13.009110" y1="37.262940" x2="13.091044" y2="37.245073" /><line x1="12.919448" y1="37.278846" x2="13.009110" y2="37.262940" /><line x1="12.820798" y1="37.292387" x2="12.919448" y2="37.278846" /><line x1="12.711622" y1="37.303042" x2="12.820798" y2="37.292387" /><line x1="12.590034" y1="37.310126" x2="12.711622" y2="37.303042" /><line x1="12.453748" y1="37.312732" x2="12.590034" y2="37.310126" /><line x1="0.000000" y1="47.500000" x2="0.000000" y2="2.500000" /><line x1="14.184961" y1="35.869298" x2="14.186539" y2="35.780746" /><line x1="14.180068" y1="35.957439" x2="14.184961" y2="35.869298" /><line x1="14.172343" y1="36.038701" x2="14.180068" y2="35.957439" /><line x1="14.162173" y1="36.113973" x2="14.172343" y2="36.038701" /><line x1="14.149868" y1="36.184003" x2="14.162173" y2="36.113973" /><line x1="14.135664" y1="36.249433" x2="14.149868" y2="36.184003" /><line x1="14.119748" y1="36.310806" x2="14.135664" y2="36.249433" /><line x1="14.102262" y1="36.368594" x2="14.119748" y2="36.310806" /><line x1="14.083306" y1="36.423204" x2="14.102262" y2="36.368594" /><line x1="14.062953" y1="36.474987" x2="14.083306" y2="36.423204" /><line x1="14.041245" y1="36.524251" x2="14.062953" y2="36.474987" /><line x1="14.018201" y1="36.571268" x2="14.041245" y2="36.524251" /><line x1="13.993815" y1="36.616273" x2="14.018201" y2="36.571268" /><line x1="13.968063" y1="36.659478" x2="13.993815" y2="36.616273" /><line x1="13.940897" y1="36.701068" x2="13.968063" y2="36.659478" /><line x1="13.912250" y1="36.741206" x2="13.940897" y2="36.701068" /><line x1="13.882034" y1="36.780041" x2="13.912250" y2="36.741206" /><line x1="13.850137" y1="36.817698" x2="13.882034" y2="36.780041" /><line x1="13.816422" y1="36.854296" x2="13.850137" y2="36.817698" /><line x1="13.780741" y1="36.889915" x2="13.816422" y2="36.854296" /><line x1="13.745444" y1="36.922402" x2="13.780741" y2="36.889915" /><line x1="49.997620" y1="47.609047" x2="50.000000" y2="47.500000" /><line x1="49.990486" y1="47.717890" x2="49.997620" y2="47.609047" /><line x1="49.978611" y1="47.826315" x2="49.990486" y2="47.717890" /><line x1="49.962019" y1="47.934120" x2="49.978611" y2="47.826315" /><line x1="49.940741" y1="48.041100" x2="49.962019" y2="47.934120" /><line x1="49.914814" y1="48.147049" x2="49.940741" y2="48.041100" /><line x1="49.884293" y1="48.251764" x2="49.914814" y2="48.147049" /><line x1="49.849232" y1="48.355049" x2="49.884293" y2="48.251764" /><line x1="49.809700" y1="48.456709" x2="49.849232" y2="48.355049" /><line x1="49.765770" y1="48.556545" x2="49.809700" y2="48.456709" /><line x1="49.717527" y1="48.654371" x2="49.765770" y2="48.556545" /><line x1="49.665064" y1="48.750000" x2="49.717527" y2="48.654371" /><line x1="49.608479" y1="48.843248" x2="49.665064" y2="48.750000" /><line x1="49.547880" y1="48.933941" x2="49.608479" y2="48.843248" /><line x1="49.483383" y1="49.021904" x2="49.547880" y2="48.933941" /><line x1="49.415112" y1="49.106968" x2="49.483383" y2="49.021904" /><line x1="49.343193" y1="49.188974" x2="49.415112" y2="49.106968" /><line x1="49.267767" y1="49.267767" x2="49.343193" y2="49.188974" /><line x1="49.188974" y1="49.343193" x2="49.267767" y2="49.267767" /><line x1="49.106968" y1="49.415112" x2="49.188974" y2="49.343193" /><line x1="49.021904" y1="49.483383" x2="49.106968" y2="49.415112" /><line x1="48.933941" y1="49.547880" x2="49.021904" y2="49.483383" /><line x1="48.843248" y1="49.608479" x2="48.933941" y2="49.547880" /><line x1="48.750000" y1="49.665064" x2="48.843248" y2="49.608479" /><line x1="48.654371" y1="49.717527" x2="48.750000" y2="49.665064" /><line x1="48.556545" y1="49.765770" x2="48.654371" y2="49.717527" /><line x1="48.456709" y1="49.809700" x2="48.556545" y2="49.765770" /><line x1="48.355049" y1="49.849232" x2="48.456709" y2="49.809700" /><line x1="48.251764" y1="49.884293" x2="48.355049" y2="49.849232" /><line x1="48.147049" y1="49.914814" x2="48.251764" y2="49.884293" /><line x1="48.041100" y1="49.940741" x2="48.147049" y2="49.914814" /><line x1="47.934120" y1="49.962019" x2="48.041100" y2="49.940741" /><line x1="47.826315" y1="49.978611" x2="47.934120" y2="49.962019" /><line x1="47.717890" y1="49.990486" x2="47.826315" y2="49.978611" /><line x1="47.609047" y1="49.997620" x2="47.717890" y2="49.990486" /><line x1="47.500000" y1="50.000000" x2="47.609047" y2="49.997620" /><line x1="14.186539" y1="35.406210" x2="14.186539" y2="35.780746" /><line x1="0.002380" y1="47.609047" x2="0.000000" y2="47.500000" /><line x1="0.009514" y1="47.717890" x2="0.002380" y2="47.609047" /><line x1="0.021389" y1="47.826315" x2="0.009514" y2="47.717890" /><line x1="0.037981" y1="47.934120" x2="0.021389" y2="47.826315" /><line x1="0.059259" y1="48.041100" x2="0.037981" y2="47.934120" /><line x1="0.085186" y1="48.147049" x2="0.059259" y2="48.041100" /><line x1="0.115707" y1="48.251764" x2="0.085186" y2="48.147049" /><line x1="0.150768" y1="48.355049" x2="0.115707" y2="48.251764" /><line x1="0.190300" y1="48.456709" x2="0.150768" y2="48.355049" /><line x1="0.234230" y1="48.556545" x2="0.190300" y2="48.456709" /><line x1="0.282473" y1="48.654371" x2="0.234230" y2="48.556545" /><line x1="0.334936" y1="48.750000" x2="0.282473" y2="48.654371" /><line x1="0.391521" y1="48.843248" x2="0.334936" y2="48.750000" /><line x1="0.452120" y1="48.933941" x2="0.391521" y2="48.843248" /><line x1="0.516617" y1="49.021904" x2="0.452120" y2="48.933941" /><line x1="0.584888" y1="49.106968" x2="0.516617" y2="49.021904" /><line x1="0.656807" y1="49.188974" x2="0.584888" y2="49.106968" /><line x1="0.732233" y1="49.267767" x2="0.656807" y2="49.188974" /><line x1="0.811026" y1="49.343193" x2="0.732233" y2="49.267767" /><line x1="0.893032" y1="49.415112" x2="0.811026" y2="49.343193" /><line x1="0.978096" y1="49.483383" x2="0.893032" y2="49.415112" /><line x1="1.066059" y1="49.547880" x2="0.978096" y2="49.483383" /><line x1="1.156752" y1="49.608479" x2="1.066059" y2="49.547880" /><line x1="1.250000" y1="49.665064" x2="1.156752" y2="49.608479" /><line x1="1.345629" y1="49.717527" x2="1.250000" y2="49.665064" /><line x1="1.443455" y1="49.765770" x2="1.345629" y2="49.717527" /><line x1="1.543291" y1="49.809700" x2="1.443455" y2="49.765770" /><line x1="1.644951" y1="49.849232" x2="1.543291" y2="49.809700" /><line x1="1.748236" y1="49.884293" x2="1.644951" y2="49.849232" /><line x1="1.852951" y1="49.914814" x2="1.748236" y2="49.884293" /><line x1="1.958900" y1="49.940741" x2="1.852951" y2="49.914814" /><line x1="2.065880" y1="49.962019" x2="1.958900" y2="49.940741" /><line x1="2.173685" y1="49.978611" x2="2.065880" y2="49.962019" /><line x1="2.282110" y1="49.990486" x2="2.173685" y2="49.978611" /><line x1="2.390953" y1="49.997620" x2="2.282110" y2="49.990486" /><line x1="2.500000" y1="50.000000" x2="2.390953" y2="49.997620" /><line x1="13.783158" y1="34.487458" x2="13.745444" y2="34.459718" /><line x1="13.816651" y1="34.514318" x2="13.783158" y2="34.487458" /><line x1="13.848187" y1="34.541790" x2="13.816651" y2="34.514318" /><line x1="13.877939" y1="34.569927" x2="13.848187" y2="34.541790" /><line x1="13.906060" y1="34.598795" x2="13.877939" y2="34.569927" /><line x1="13.932678" y1="34.628472" x2="13.906060" y2="34.598795" /><line x1="13.957903" y1="34.659044" x2="13.932678" y2="34.628472" /><line x1="13.981826" y1="34.690617" x2="13.957903" y2="34.659044" /><line x1="14.004520" y1="34.723305" x2="13.981826" y2="34.690617" /><line x1="14.026043" y1="34.757245" x2="14.004520" y2="34.723305" /><line x1="14.046433" y1="34.792589" x2="14.026043" y2="34.757245" /><line x1="14.065716" y1="34.829516" x2="14.046433" y2="34.792589" /><line x1="14.083898" y1="34.868230" x2="14.065716" y2="34.829516" /><line x1="14.100964" y1="34.908966" x2="14.083898" y2="34.868230" /><line x1="14.116879" y1="34.951999" x2="14.100964" y2="34.908966" /><line x1="14.131578" y1="34.997650" x2="14.116879" y2="34.951999" /><line x1="14.144973" y1="35.046301" x2="14.131578" y2="34.997650" /><line x1="14.156929" y1="35.098399" x2="14.144973" y2="35.046301" /><line x1="14.167270" y1="35.154482" x2="14.156929" y2="35.098399" /><line x1="14.175733" y1="35.215018" x2="14.167270" y2="35.154482" /><line x1="14.181497" y1="35.273874" x2="14.175733" y2="35.215018" /><line x1="14.185211" y1="35.337384" x2="14.181497" y2="35.273874" /><line x1="14.186539" y1="35.406210" x2="14.185211" y2="35.337384" /><line x1="49.997620" y1="2.390953" x2="50.000000" y2="2.500000" /><line x1="49.990486" y1="2.282110" x2="49.997620" y2="2.390953" /><line x1="49.978611" y1="2.173685" x2="49.990486" y2="2.282110" /><line x1="49.962019" y1="2.065880" x2="49.978611" y2="2.173685" /><line x1="49.940741" y1="1.958900" x2="49.962019" y2="2.065880" /><line x1="49.914814" y1="1.852951" x2="49.940741" y2="1.958900" /><line x1="49.884293" y1="1.748236" x2="49.914814" y2="1.852951" /><line x1="49.849232" y1="1.644951" x2="49.884293" y2="1.748236" /><line x1="49.809700" y1="1.543291" x2="49.849232" y2="1.644951" /><line x1="49.765770" y1="1.443455" x2="49.809700" y2="1.543291" /><line x1="49.717527" y1="1.345629" x2="49.765770" y2="1.443455" /><line x1="49.665064" y1="1.250000" x2="49.717527" y2="1.345629" /><line x1="49.608479" y1="1.156752" x2="49.665064" y2="1.250000" /><line x1="49.547880" y1="1.066059" x2="49.608479" y2="1.156752" /><line x1="49.483383" y1="0.978096" x2="49.547880" y2="1.066059" /><line x1="49.415112" y1="0.893032" x2="49.483383" y2="0.978096" /><line x1="49.343193" y1="0.811026" x2="49.415112" y2="0.893032" /><line x1="49.267767" y1="0.732233" x2="49.343193" y2="0.811026" /><line x1="49.188974" y1="0.656807" x2="49.267767" y2="0.732233" /><line x1="49.106968" y1="0.584888" x2="49.188974" y2="0.656807" /><line x1="49.021904" y1="0.516617" x2="49.106968" y2="0.584888" /><line x1="48.933941" y1="0.452120" x2="49.021904" y2="0.516617" /><line x1="48.843248" y1="0.391521" x2="48.933941" y2="0.452120" /><line x1="48.750000" y1="0.334936" x2="48.843248" y2="0.391521" /><line x1="48.654371" y1="0.282473" x2="48.750000" y2="0.334936" /><line x1="48.556545" y1="0.234230" x2="48.654371" y2="0.282473" /><line x1="48.456709" y1="0.190300" x2="48.556545" y2="0.234230" /><line x1="48.355049" y1="0.150768" x2="48.456709" y2="0.190300" /><line x1="48.251764" y1="0.115707" x2="48.355049" y2="0.150768" /><line x1="48.147049" y1="0.085186" x2="48.251764" y2="0.115707" /><line x1="48.041100" y1="0.059259" x2="48.147049" y2="0.085186" /><line x1="47.934120" y1="0.037981" x2="48.041100" y2="0.059259" /><line x1="47.826315" y1="0.021389" x2="47.934120" y2="0.037981" /><line x1="47.717890" y1="0.009514" x2="47.826315" y2="0.021389" /><line x1="47.609047" y1="0.002380" x2="47.717890" y2="0.009514" /><line x1="47.500000" y1="0.000000" x2="47.609047" y2="0.002380" /><line x1="12.537369" y1="34.150805" x2="12.424416" y2="34.149486" /><line x1="12.695797" y1="34.157491" x2="12.537369" y2="34.150805" /><line x1="12.833897" y1="34.168568" x2="12.695797" y2="34.157491" /><line x1="12.955218" y1="34.182968" x2="12.833897" y2="34.168568" /><line x1="13.062563" y1="34.199903" x2="12.955218" y2="34.182968" /><line x1="13.158171" y1="34.218788" x2="13.062563" y2="34.199903" /><line x1="13.243843" y1="34.239186" x2="13.158171" y2="34.218788" /><line x1="13.321047" y1="34.260775" x2="13.243843" y2="34.239186" /><line x1="13.390984" y1="34.283314" x2="13.321047" y2="34.260775" /><line x1="13.454646" y1="34.306628" x2="13.390984" y2="34.283314" /><line x1="13.512861" y1="34.330591" x2="13.454646" y2="34.306628" /><line x1="13.566319" y1="34.355114" x2="13.512861" y2="34.330591" /><line x1="13.615602" y1="34.380139" x2="13.566319" y2="34.355114" /><line x1="13.661204" y1="34.405633" x2="13.615602" y2="34.380139" /><line x1="13.703504" y1="34.431556" x2="13.661204" y2="34.405633" /><line x1="13.745444" y1="34.459718" x2="13.703504" y2="34.431556" /><line x1="0.002380" y1="2.390953" x2="0.000000" y2="2.500000" /><line x1="0.009514" y1="2.282110" x2="0.002380" y2="2.390953" /><line x1="0.021389" y1="2.173685" x2="0.009514" y2="2.282110" /><line x1="0.037981" y1="2.065880" x2="0.021389" y2="2.173685" /><line x1="0.059259" y1="1.958900" x2="0.037981" y2="2.065880" /><line x1="0.085186" y1="1.852951" x2="0.059259" y2="1.958900" /><line x1="0.115707" y1="1.748236" x2="0.085186" y2="1.852951" /><line x1="0.150768" y1="1.644951" x2="0.115707" y2="1.748236" /><line x1="0.190300" y1="1.543291" x2="0.150768" y2="1.644951" /><line x1="0.234230" y1="1.443455" x2="0.190300" y2="1.543291" /><line x1="0.282473" y1="1.345629" x2="0.234230" y2="1.443455" /><line x1="0.334936" y1="1.250000" x2="0.282473" y2="1.345629" /><line x1="0.391521" y1="1.156752" x2="0.334936" y2="1.250000" /><line x1="0.452120" y1="1.066059" x2="0.391521" y2="1.156752" /><line x1="0.516617" y1="0.978096" x2="0.452120" y2="1.066059" /><line x1="0.584888" y1="0.893032" x2="0.516617" y2="0.978096" /><line x1="0.656807" y1="0.811026" x2="0.584888" y2="0.893032" /><line x1="0.732233" y1="0.732233" x2="0.656807" y2="0.811026" /><line x1="0.811026" y1="0.656807" x2="0.732233" y2="0.732233" /><line x1="0.893032" y1="0.584888" x2="0.811026" y2="0.656807" /><line x1="0.978096" y1="0.516617" x2="0.893032" y2="0.584888" /><line x1="1.066059" y1="0.452120" x2="0.978096" y2="0.516617" /><line x1="1.156752" y1="0.391521" x2="1.066059" y2="0.452120" /><line x1="1.250000" y1="0.334936" x2="1.156752" y2="0.391521" /><line x1="1.345629" y1="0.282473" x2="1.250000" y2="0.334936" /><line x1="1.443455" y1="0.234230" x2="1.345629" y2="0.282473" /><line x1="1.543291" y1="0.190300" x2="1.443455" y2="0.234230" /><line x1="1.644951" y1="0.150768" x2="1.543291" y2="0.190300" /><line x1="1.748236" y1="0.115707" x2="1.644951" y2="0.150768" /><line x1="1.852951" y1="0.085186" x2="1.748236" y2="0.115707" /><line x1="1.958900" y1="0.059259" x2="1.852951" y2="0.085186" /><line x1="2.065880" y1="0.037981" x2="1.958900" y2="0.059259" /><line x1="2.173685" y1="0.021389" x2="2.065880" y2="0.037981" /><line x1="2.282110" y1="0.009514" x2="2.173685" y2="0.021389" /><line x1="2.390953" y1="0.002380" x2="2.282110" y2="0.009514" /><line x1="2.500000" y1="0.000000" x2="2.390953" y2="0.002380" /><line x1="11.138082" y1="34.473477" x2="11.118053" y2="34.489049" /><line x1="11.176966" y1="34.445255" x2="11.138082" y2="34.473477" /><line x1="11.218949" y1="34.417443" x2="11.176966" y2="34.445255" /><line x1="11.264467" y1="34.390028" x2="11.218949" y2="34.417443" /><line x1="11.314038" y1="34.363013" x2="11.264467" y2="34.390028" /><line x1="11.368296" y1="34.336429" x2="11.314038" y2="34.363013" /><line x1="11.427822" y1="34.310409" x2="11.368296" y2="34.336429" /><line x1="11.486455" y1="34.287616" x2="11.427822" y2="34.310409" /><line x1="11.550636" y1="34.265517" x2="11.486455" y2="34.287616" /><line x1="11.621240" y1="34.244262" x2="11.550636" y2="34.265517" /><line x1="11.699319" y1="34.224050" x2="11.621240" y2="34.244262" /><line x1="11.786169" y1="34.205160" x2="11.699319" y2="34.224050" /><line x1="11.883383" y1="34.187963" x2="11.786169" y2="34.205160" /><line x1="11.992948" y1="34.172972" x2="11.883383" y2="34.187963" /><line x1="12.117360" y1="34.160871" x2="11.992948" y2="34.172972" /><line x1="12.259805" y1="34.152608" x2="12.117360" y2="34.160871" /><line x1="12.424416" y1="34.149486" x2="12.259805" y2="34.152608" /><line x1="47.500000" y1="50.000000" x2="2.500000" y2="50.000000" /><line x1="10.691824" y1="35.547644" x2="10.691625" y2="35.579941" /><line x1="10.694776" y1="35.453820" x2="10.691824" y2="35.547644" /><line x1="10.700760" y1="35.368815" x2="10.694776" y2="35.453820" /><line x1="10.709261" y1="35.291377" x2="10.700760" y2="35.368815" /><line x1="10.719872" y1="35.220465" x2="10.709261" y2="35.291377" /><line x1="10.732282" y1="35.155213" x2="10.719872" y2="35.220465" /><line x1="10.746243" y1="35.094898" x2="10.732282" y2="35.155213" /><line x1="10.761570" y1="35.038904" x2="10.746243" y2="35.094898" /><line x1="10.778117" y1="34.986712" x2="10.761570" y2="35.038904" /><line x1="10.795780" y1="34.937876" x2="10.778117" y2="34.986712" /><line x1="10.814481" y1="34.892015" x2="10.795780" y2="34.937876" /><line x1="10.834170" y1="34.848798" x2="10.814481" y2="34.892015" /><line x1="10.854817" y1="34.807940" x2="10.834170" y2="34.848798" /><line x1="10.876415" y1="34.769194" x2="10.854817" y2="34.807940" /><line x1="10.898971" y1="34.732343" x2="10.876415" y2="34.769194" /><line x1="10.922507" y1="34.697197" x2="10.898971" y2="34.732343" /><line x1="10.947067" y1="34.663591" x2="10.922507" y2="34.697197" /><line x1="10.972703" y1="34.631379" x2="10.947067" y2="34.663591" /><line x1="10.999490" y1="34.600437" x2="10.972703" y2="34.631379" /><line x1="11.027514" y1="34.570652" x2="10.999490" y2="34.600437" /><line x1="11.056882" y1="34.541929" x2="11.027514" y2="34.570652" /><line x1="11.087709" y1="34.514198" x2="11.056882" y2="34.541929" /><line x1="11.118053" y1="34.489049" x2="11.087709" y2="34.514198" /><line x1="10.563460" y1="35.723855" x2="10.547225" y2="35.724339" /><line x1="10.580562" y1="35.722156" x2="10.563460" y2="35.723855" /><line x1="10.601162" y1="35.718062" x2="10.580562" y2="35.722156" /><line x1="10.622321" y1="35.710711" x2="10.601162" y2="35.718062" /><line x1="10.642506" y1="35.699258" x2="10.622321" y2="35.710711" /><line x1="10.661127" y1="35.682165" x2="10.642506" y2="35.699258" /><line x1="10.673948" y1="35.663307" x2="10.661127" y2="35.682165" /><line x1="10.682600" y1="35.643114" x2="10.673948" y2="35.663307" /><line x1="10.687679" y1="35.623728" x2="10.682600" y2="35.643114" /><line x1="10.690864" y1="35.600143" x2="10.687679" y2="35.623728" /><line x1="10.691625" y1="35.579941" x2="10.690864" y2="35.600143" /><line x1="9.622167" y1="35.724339" x2="10.547225" y2="35.724339" /><line x1="9.478252" y1="35.596176" x2="9.477768" y2="35.579941" /><line x1="9.479952" y1="35.613276" x2="9.478252" y2="35.596176" /><line x1="9.484045" y1="35.633878" x2="9.479952" y2="35.613276" /><line x1="9.491397" y1="35.655037" x2="9.484045" y2="35.633878" /><line x1="9.502850" y1="35.675220" x2="9.491397" y2="35.655037" /><line x1="9.519942" y1="35.693843" x2="9.502850" y2="35.675220" /><line x1="9.538800" y1="35.706663" x2="9.519942" y2="35.693843" /><line x1="9.558993" y1="35.715315" x2="9.538800" y2="35.706663" /><line x1="9.578380" y1="35.720395" x2="9.558993" y2="35.715315" /><line x1="9.601964" y1="35.723578" x2="9.578380" y2="35.720395" /><line x1="9.622167" y1="35.724339" x2="9.601964" y2="35.723578" /><line x1="10.225850" y1="33.703209" x2="10.235865" y2="33.694853" /><line x1="10.167324" y1="33.754354" x2="10.225850" y2="33.703209" /><line x1="10.109322" y1="33.809310" x2="10.167324" y2="33.754354" /><line x1="10.054129" y1="33.866097" x2="10.109322" y2="33.809310" /><line x1="10.001532" y1="33.924892" x2="10.054129" y2="33.866097" /><line x1="9.951350" y1="33.985899" x2="10.001532" y2="33.924892" /><line x1="9.903437" y1="34.049357" x2="9.951350" y2="33.985899" /><line x1="9.857676" y1="34.115542" x2="9.903437" y2="34.049357" /><line x1="9.813980" y1="34.184773" x2="9.857676" y2="34.115542" /><line x1="9.772295" y1="34.257419" x2="9.813980" y2="34.184773" /><line x1="9.732600" y1="34.333908" x2="9.772295" y2="34.257419" /><line x1="9.694910" y1="34.414742" x2="9.732600" y2="34.333908" /><line x1="9.659285" y1="34.500503" x2="9.694910" y2="34.414742" /><line x1="9.625830" y1="34.591881" x2="9.659285" y2="34.500503" /><line x1="9.594711" y1="34.689692" x2="9.625830" y2="34.591881" /><line x1="9.566171" y1="34.794909" x2="9.594711" y2="34.689692" /><line x1="9.540544" y1="34.908696" x2="9.566171" y2="34.794909" /><line x1="9.518344" y1="35.032084" x2="9.540544" y2="34.908696" /><line x1="9.501801" y1="35.152340" x2="9.518344" y2="35.032084" /><line x1="9.489051" y1="35.282657" x2="9.501801" y2="35.152340" /><line x1="9.480757" y1="35.424599" x2="9.489051" y2="35.282657" /><line x1="9.477768" y1="35.579941" x2="9.480757" y2="35.424599" /><line x1="12.399528" y1="33.067583" x2="12.525947" y2="33.066490" /><line x1="12.149504" y1="33.076613" x2="12.399528" y2="33.067583" /><line x1="11.928336" y1="33.093087" x2="12.149504" y2="33.076613" /><line x1="11.731351" y1="33.115400" x2="11.928336" y2="33.093087" /><line x1="11.554792" y1="33.142347" x2="11.731351" y2="33.115400" /><line x1="11.395612" y1="33.173010" x2="11.554792" y2="33.142347" /><line x1="11.251313" y1="33.206696" x2="11.395612" y2="33.173010" /><line x1="11.119840" y1="33.242874" x2="11.251313" y2="33.206696" /><line x1="10.999483" y1="33.281152" x2="11.119840" y2="33.242874" /><line x1="10.888812" y1="33.321231" x2="10.999483" y2="33.281152" /><line x1="10.786623" y1="33.362897" x2="10.888812" y2="33.321231" /><line x1="10.691899" y1="33.405996" x2="10.786623" y2="33.362897" /><line x1="10.603774" y1="33.450430" x2="10.691899" y2="33.405996" /><line x1="10.521506" y1="33.496141" x2="10.603774" y2="33.450430" /><line x1="10.444463" y1="33.543108" x2="10.521506" y2="33.496141" /><line x1="10.372096" y1="33.591341" x2="10.444463" y2="33.543108" /><line x1="10.303967" y1="33.640855" x2="10.372096" y2="33.591341" /><line x1="10.235865" y1="33.694853" x2="10.303967" y2="33.640855" /><line x1="14.646102" y1="33.604037" x2="14.706602" y2="33.651984" /><line x1="14.580976" y1="33.556787" x2="14.646102" y2="33.604037" /><line x1="14.510767" y1="33.510292" x2="14.580976" y2="33.556787" /><line x1="14.434770" y1="33.464528" x2="14.510767" y2="33.510292" /><line x1="14.352138" y1="33.419502" x2="14.434770" y2="33.464528" /><line x1="14.261853" y1="33.375265" x2="14.352138" y2="33.419502" /><line x1="14.162973" y1="33.332036" x2="14.261853" y2="33.375265" /><line x1="14.065624" y1="33.294184" x2="14.162973" y2="33.332036" /><line x1="13.959237" y1="33.257546" x2="14.065624" y2="33.294184" /><line x1="13.842408" y1="33.222364" x2="13.959237" y2="33.257546" /><line x1="13.713440" y1="33.188973" x2="13.842408" y2="33.222364" /><line x1="13.570263" y1="33.157824" x2="13.713440" y2="33.188973" /><line x1="13.410330" y1="33.129526" x2="13.570263" y2="33.157824" /><line x1="13.230475" y1="33.104906" x2="13.410330" y2="33.129526" /><line x1="13.026731" y1="33.085084" x2="13.230475" y2="33.104906" /><line x1="12.794058" y1="33.071581" x2="13.026731" y2="33.085084" /><line x1="12.525947" y1="33.066490" x2="12.794058" y2="33.071581" /><line x1="15.411818" y1="35.344669" x2="15.413933" y2="35.478410" /><line x1="15.404238" y1="35.196827" x2="15.411818" y2="35.344669" /><line x1="15.392034" y1="35.062005" x2="15.404238" y2="35.196827" /><line x1="15.375940" y1="34.938422" x2="15.392034" y2="35.062005" /><line x1="15.356532" y1="34.824590" x2="15.375940" y2="34.938422" /><line x1="15.334254" y1="34.719261" x2="15.356532" y2="34.824590" /><line x1="15.309457" y1="34.621380" x2="15.334254" y2="34.719261" /><line x1="15.282400" y1="34.530047" x2="15.309457" y2="34.621380" /><line x1="15.253288" y1="34.444499" x2="15.282400" y2="34.530047" /><line x1="15.222263" y1="34.364075" x2="15.253288" y2="34.444499" /><line x1="15.189425" y1="34.288205" x2="15.222263" y2="34.364075" /><line x1="15.154832" y1="34.216394" x2="15.189425" y2="34.288205" /><line x1="15.118508" y1="34.148215" x2="15.154832" y2="34.216394" /><line x1="15.080447" y1="34.083290" x2="15.118508" y2="34.148215" /><line x1="15.040610" y1="34.021291" x2="15.080447" y2="34.083290" /><line x1="14.998935" y1="33.961928" x2="15.040610" y2="34.021291" /><line x1="14.955326" y1="33.904951" x2="14.998935" y2="33.961928" /><line x1="14.909663" y1="33.850134" x2="14.955326" y2="33.904951" /><line x1="14.861794" y1="33.797284" x2="14.909663" y2="33.850134" /><line x1="14.811538" y1="33.746232" x2="14.861794" y2="33.797284" /><line x1="14.758693" y1="33.696851" x2="14.811538" y2="33.746232" /><line x1="14.706602" y1="33.651984" x2="14.758693" y2="33.696851" /><line x1="15.044031" y1="36.954248" x2="15.031501" y2="36.973167" /><line x1="15.082644" y1="36.892540" x2="15.044031" y2="36.954248" /><line x1="15.122665" y1="36.822371" x2="15.082644" y2="36.892540" /><line x1="15.161057" y1="36.747878" x2="15.122665" y2="36.822371" /><line x1="15.197781" y1="36.668479" x2="15.161057" y2="36.747878" /><line x1="15.232754" y1="36.583488" x2="15.197781" y2="36.668479" /><line x1="15.265844" y1="36.492088" x2="15.232754" y2="36.583488" /><line x1="15.296854" y1="36.393294" x2="15.265844" y2="36.492088" /><line x1="15.325495" y1="36.285928" x2="15.296854" y2="36.393294" /><line x1="15.351300" y1="36.168933" x2="15.325495" y2="36.285928" /><line x1="15.371600" y1="36.054621" x2="15.351300" y2="36.168933" /><line x1="15.388700" y1="35.930187" x2="15.371600" y2="36.054621" /><line x1="15.402008" y1="35.794025" x2="15.388700" y2="35.930187" /><line x1="15.410751" y1="35.644192" x2="15.402008" y2="35.794025" /><line x1="15.413933" y1="35.478410" x2="15.410751" y2="35.644192" /><line x1="14.029834" y1="37.740416" x2="14.012809" y2="37.745930" /><line x1="14.105681" y1="37.713833" x2="14.029834" y2="37.740416" /><line x1="14.180687" y1="37.684122" x2="14.105681" y2="37.713833" /><line x1="14.252783" y1="37.652100" x2="14.180687" y2="37.684122" /><line x1="14.322291" y1="37.617751" x2="14.252783" y2="37.652100" /><line x1="14.389503" y1="37.581027" x2="14.322291" y2="37.617751" /><line x1="14.454679" y1="37.541842" x2="14.389503" y2="37.581027" /><line x1="14.518052" y1="37.500076" x2="14.454679" y2="37.541842" /><line x1="14.579835" y1="37.455572" x2="14.518052" y2="37.500076" /><line x1="14.640218" y1="37.408134" x2="14.579835" y2="37.455572" /><line x1="14.699377" y1="37.357516" x2="14.640218" y2="37.408134" /><line x1="14.757466" y1="37.303431" x2="14.699377" y2="37.357516" /><line x1="14.814627" y1="37.245525" x2="14.757466" y2="37.303431" /><line x1="14.870986" y1="37.183384" x2="14.814627" y2="37.245525" /><line x1="14.926650" y1="37.116510" x2="14.870986" y2="37.183384" /><line x1="14.981632" y1="37.044418" x2="14.926650" y2="37.116510" /><line x1="15.031501" y1="36.973167" x2="14.981632" y2="37.044418" /><line x1="14.012809" y1="37.775261" x2="14.012809" y2="37.745930" /><line x1="12.566391" y1="42.869934" x2="12.395084" y2="42.872107" /><line x1="12.800879" y1="42.859459" x2="12.566391" y2="42.869934" /><line x1="13.012423" y1="42.841776" x2="12.800879" y2="42.859459" /><line x1="13.204357" y1="42.818172" x2="13.012423" y2="42.841776" /><line x1="13.379430" y1="42.789658" x2="13.204357" y2="42.818172" /><line x1="13.539917" y1="42.756998" x2="13.379430" y2="42.789658" /><line x1="13.687725" y1="42.720793" x2="13.539917" y2="42.756998" /><line x1="13.824454" y1="42.681498" x2="13.687725" y2="42.720793" /><line x1="13.951458" y1="42.639463" x2="13.824454" y2="42.681498" /><line x1="14.069891" y1="42.594946" x2="13.951458" y2="42.639463" /><line x1="14.180739" y1="42.548128" x2="14.069891" y2="42.594946" /><line x1="14.284850" y1="42.499134" x2="14.180739" y2="42.548128" /><line x1="14.382955" y1="42.448030" x2="14.284850" y2="42.499134" /><line x1="14.475687" y1="42.394846" x2="14.382955" y2="42.448030" /><line x1="14.563597" y1="42.339561" x2="14.475687" y2="42.394846" /><line x1="14.647164" y1="42.282122" x2="14.563597" y2="42.339561" /><line x1="14.726789" y1="42.222452" x2="14.647164" y2="42.282122" /><line x1="14.807004" y1="42.156879" x2="14.726789" y2="42.222452" /><line x1="11.039570" y1="38.251770" x2="11.039085" y2="38.235534" /><line x1="11.041269" y1="38.268870" x2="11.039570" y2="38.251770" /><line x1="11.045362" y1="38.289471" x2="11.041269" y2="38.268870" /><line x1="11.052714" y1="38.310630" x2="11.045362" y2="38.289471" /><line x1="11.064167" y1="38.330814" x2="11.052714" y2="38.310630" /><line x1="11.081261" y1="38.349436" x2="11.064167" y2="38.330814" /><line x1="11.100118" y1="38.362257" x2="11.081261" y2="38.349436" /><line x1="11.120311" y1="38.370909" x2="11.100118" y2="38.362257" /><line x1="11.139697" y1="38.375989" x2="11.120311" y2="38.370909" /><line x1="11.163281" y1="38.379172" x2="11.139697" y2="38.375989" /><line x1="11.183484" y1="38.379933" x2="11.163281" y2="38.379172" /><line x1="15.640468" y1="39.929068" x2="15.644070" y2="40.099188" /><line x1="15.631713" y1="39.788931" x2="15.640468" y2="39.929068" /><line x1="15.618564" y1="39.660042" x2="15.631713" y2="39.788931" /><line x1="15.601643" y1="39.540931" x2="15.618564" y2="39.660042" /><line x1="15.581440" y1="39.430361" x2="15.601643" y2="39.540931" /><line x1="15.558337" y1="39.327282" x2="15.581440" y2="39.430361" /><line x1="15.532630" y1="39.230799" x2="15.558337" y2="39.327282" /><line x1="15.504540" y1="39.140142" x2="15.532630" y2="39.230799" /><line x1="15.474235" y1="39.054650" x2="15.504540" y2="39.140142" /><line x1="15.441824" y1="38.973747" x2="15.474235" y2="39.054650" /><line x1="15.407381" y1="38.896935" x2="15.441824" y2="38.973747" /><line x1="15.370936" y1="38.823774" x2="15.407381" y2="38.896935" /><line x1="15.332488" y1="38.753882" x2="15.370936" y2="38.823774" /><line x1="15.292008" y1="38.686938" x2="15.332488" y2="38.753882" /><line x1="15.246971" y1="38.619095" x2="15.292008" y2="38.686938" /><line x1="12.567792" y1="38.381574" x2="12.437953" y2="38.379933" /><line x1="12.737437" y1="38.389077" x2="12.567792" y2="38.381574" /><line x1="12.886283" y1="38.401345" x2="12.737437" y2="38.389077" /><line x1="13.017838" y1="38.417275" x2="12.886283" y2="38.401345" /><line x1="13.134900" y1="38.436045" x2="13.017838" y2="38.417275" /><line x1="13.239719" y1="38.457037" x2="13.134900" y2="38.436045" /><line x1="13.334120" y1="38.479790" x2="13.239719" y2="38.457037" /><line x1="13.419594" y1="38.503960" x2="13.334120" y2="38.479790" /><line x1="13.497375" y1="38.529286" x2="13.419594" y2="38.503960" /><line x1="13.568485" y1="38.555583" x2="13.497375" y2="38.529286" /><line x1="13.633780" y1="38.582709" x2="13.568485" y2="38.555583" /><line x1="13.693980" y1="38.610572" x2="13.633780" y2="38.582709" /><line x1="13.749691" y1="38.639106" x2="13.693980" y2="38.610572" /><line x1="13.801432" y1="38.668276" x2="13.749691" y2="38.639106" /><line x1="13.849644" y1="38.698069" x2="13.801432" y2="38.668276" /><line x1="13.894693" y1="38.728482" x2="13.849644" y2="38.698069" /><line x1="13.937737" y1="38.760175" x2="13.894693" y2="38.728482" /><line x1="13.977374" y1="38.791946" x2="13.937737" y2="38.760175" /><line x1="14.014711" y1="38.824457" x2="13.977374" y2="38.791946" /><line x1="14.049952" y1="38.857771" x2="14.014711" y2="38.824457" /><line x1="14.083273" y1="38.891964" x2="14.049952" y2="38.857771" /><line x1="14.114828" y1="38.927130" x2="14.083273" y2="38.891964" /><line x1="14.144744" y1="38.963374" x2="14.114828" y2="38.927130" /><line x1="14.173128" y1="39.000820" x2="14.144744" y2="38.963374" /><line x1="14.200065" y1="39.039607" x2="14.173128" y2="39.000820" /><line x1="14.225621" y1="39.079896" x2="14.200065" y2="39.039607" /><line x1="14.249846" y1="39.121872" x2="14.225621" y2="39.079896" /><line x1="14.272764" y1="39.165748" x2="14.249846" y2="39.121872" /><line x1="14.294383" y1="39.211767" x2="14.272764" y2="39.165748" /><line x1="14.314685" y1="39.260215" x2="14.294383" y2="39.211767" /><line x1="14.333626" y1="39.311419" x2="14.314685" y2="39.260215" /><line x1="14.351132" y1="39.365769" x2="14.333626" y2="39.311419" /><line x1="14.367090" y1="39.423720" x2="14.351132" y2="39.365769" /><line x1="14.381343" y1="39.485815" x2="14.367090" y2="39.423720" /><line x1="14.393676" y1="39.552696" x2="14.381343" y2="39.485815" /><line x1="14.403774" y1="39.624933" x2="14.393676" y2="39.552696" /><line x1="14.410653" y1="39.695177" x2="14.403774" y2="39.624933" /><line x1="14.415090" y1="39.771019" x2="14.410653" y2="39.695177" /><line x1="14.416676" y1="39.853258" x2="14.415090" y2="39.771019" /><line x1="11.039085" y1="37.457131" x2="11.039085" y2="38.235534" /><line x1="14.859346" y1="42.110798" x2="14.807004" y2="42.156879" /><line x1="14.927966" y1="42.045956" x2="14.859346" y2="42.110798" /><line x1="14.992874" y1="41.979376" x2="14.927966" y2="42.045956" /><line x1="15.054360" y1="41.910875" x2="14.992874" y2="41.979376" /><line x1="15.112676" y1="41.840248" x2="15.054360" y2="41.910875" /><line x1="15.168023" y1="41.767250" x2="15.112676" y2="41.840248" /><line x1="15.220569" y1="41.691610" x2="15.168023" y2="41.767250" /><line x1="15.270441" y1="41.613010" x2="15.220569" y2="41.691610" /><line x1="15.317731" y1="41.531088" x2="15.270441" y2="41.613010" /><line x1="15.362491" y1="41.445423" x2="15.317731" y2="41.531088" /><line x1="15.404728" y1="41.355536" x2="15.362491" y2="41.445423" /><line x1="15.444408" y1="41.260866" x2="15.404728" y2="41.355536" /><line x1="15.481445" y1="41.160767" x2="15.444408" y2="41.260866" /><line x1="15.515689" y1="41.054468" x2="15.481445" y2="41.160767" /><line x1="15.546921" y1="40.941074" x2="15.515689" y2="41.054468" /><line x1="15.574828" y1="40.819512" x2="15.546921" y2="40.941074" /><line x1="15.598986" y1="40.688511" x2="15.574828" y2="40.819512" /><line x1="15.618777" y1="40.546944" x2="15.598986" y2="40.688511" /><line x1="15.632258" y1="40.409266" x2="15.618777" y2="40.546944" /><line x1="15.640958" y1="40.260540" x2="15.632258" y2="40.409266" /><line x1="15.644070" y1="40.099188" x2="15.640958" y2="40.260540" /><line x1="11.183484" y1="38.379933" x2="12.437953" y2="38.379933" /><line x1="15.227046" y1="38.591022" x2="15.246971" y2="38.619095" /><line x1="15.181062" y1="38.530228" x2="15.227046" y2="38.591022" /><line x1="15.131952" y1="38.470650" x2="15.181062" y2="38.530228" /><line x1="15.079439" y1="38.412127" x2="15.131952" y2="38.470650" /><line x1="15.023190" y1="38.354515" x2="15.079439" y2="38.412127" /><line x1="14.962800" y1="38.297679" x2="15.023190" y2="38.354515" /><line x1="14.897795" y1="38.241505" x2="14.962800" y2="38.297679" /><line x1="14.827605" y1="38.185889" x2="14.897795" y2="38.241505" /><line x1="14.751547" y1="38.130753" x2="14.827605" y2="38.185889" /><line x1="14.668801" y1="38.076031" x2="14.751547" y2="38.130753" /><line x1="14.578376" y1="38.021689" x2="14.668801" y2="38.076031" /><line x1="14.479074" y1="37.967733" x2="14.578376" y2="38.021689" /><line x1="14.369770" y1="37.914370" x2="14.479074" y2="37.967733" /><line x1="14.261856" y1="37.867102" x2="14.369770" y2="37.914370" /><line x1="14.143395" y1="37.820653" x2="14.261856" y2="37.867102" /><line x1="14.012809" y1="37.775261" x2="14.143395" y2="37.820653" /><line x1="14.416676" y1="39.853258" x2="14.416676" y2="40.230049" /><line x1="40.552675" y1="17.584009" x2="40.552675" y2="16.755588" /><line x1="34.860400" y1="10.713787" x2="35.804574" y2="10.713787" /><line x1="35.934323" y1="10.527471" x2="35.933944" y2="10.568530" /><line x1="35.937432" y1="10.445693" x2="35.934323" y2="10.527471" /><line x1="35.943322" y1="10.369843" x2="35.937432" y2="10.445693" /><line x1="35.951637" y1="10.299177" x2="35.943322" y2="10.369843" /><line x1="35.962098" y1="10.233059" x2="35.951637" y2="10.299177" /><line x1="35.974486" y1="10.170944" x2="35.962098" y2="10.233059" /><line x1="35.988632" y1="10.112366" x2="35.974486" y2="10.170944" /><line x1="36.004408" y1="10.056916" x2="35.988632" y2="10.112366" /><line x1="36.021720" y1="10.004245" x2="36.004408" y2="10.056916" /><line x1="36.040508" y1="9.954041" x2="36.021720" y2="10.004245" /><line x1="36.060735" y1="9.906033" x2="36.040508" y2="9.954041" /><line x1="36.082389" y1="9.859982" x2="36.060735" y2="9.906033" /><line x1="36.105482" y1="9.815676" x2="36.082389" y2="9.859982" /><line x1="36.130049" y1="9.772924" x2="36.105482" y2="9.815676" /><line x1="36.156144" y1="9.731559" x2="36.130049" y2="9.772924" /><line x1="36.183846" y1="9.691427" x2="36.156144" y2="9.731559" /><line x1="36.213252" y1="9.652394" x2="36.183846" y2="9.691427" /><line x1="36.244489" y1="9.614338" x2="36.213252" y2="9.652394" /><line x1="36.277710" y1="9.577149" x2="36.244489" y2="9.614338" /><line x1="36.313078" y1="9.540751" x2="36.277710" y2="9.577149" /><line x1="36.348154" y1="9.507470" x2="36.313078" y2="9.540751" /><line x1="40.407418" y1="16.610331" x2="35.933944" y2="16.610331" /><line x1="35.935020" y1="16.529798" x2="35.933944" y2="16.610331" /><line x1="35.940172" y1="16.419190" x2="35.935020" y2="16.529798" /><line x1="35.949093" y1="16.315938" x2="35.940172" y2="16.419190" /><line x1="35.961354" y1="16.219139" x2="35.949093" y2="16.315938" /><line x1="35.976616" y1="16.128024" x2="35.961354" y2="16.219139" /><line x1="35.994614" y1="16.041925" x2="35.976616" y2="16.128024" /><line x1="36.015144" y1="15.960267" x2="35.994614" y2="16.041925" /><line x1="36.038061" y1="15.882542" x2="36.015144" y2="15.960267" /><line x1="36.063261" y1="15.808308" x2="36.038061" y2="15.882542" /><line x1="36.090682" y1="15.737176" x2="36.063261" y2="15.808308" /><line x1="36.120299" y1="15.668797" x2="36.090682" y2="15.737176" /><line x1="36.152119" y1="15.602880" x2="36.120299" y2="15.668797" /><line x1="36.188144" y1="15.535653" x2="36.152119" y2="15.602880" /><line x1="35.825019" y1="10.712801" x2="35.804574" y2="10.713787" /><line x1="35.843834" y1="10.709813" x2="35.825019" y2="10.712801" /><line x1="35.867673" y1="10.702049" x2="35.843834" y2="10.709813" /><line x1="35.889079" y1="10.689238" x2="35.867673" y2="10.702049" /><line x1="35.906141" y1="10.671990" x2="35.889079" y2="10.689238" /><line x1="35.918324" y1="10.651938" x2="35.906141" y2="10.671990" /><line x1="35.926517" y1="10.629795" x2="35.918324" y2="10.651938" /><line x1="35.931024" y1="10.608899" x2="35.926517" y2="10.629795" /><line x1="35.933102" y1="10.591030" x2="35.931024" y2="10.608899" /><line x1="35.933944" y1="10.568530" x2="35.933102" y2="10.591030" /><line x1="36.381749" y1="9.478055" x2="36.348154" y2="9.507470" /><line x1="36.418567" y1="9.448422" x2="36.381749" y2="9.478055" /><line x1="36.457793" y1="9.419497" x2="36.418567" y2="9.448422" /><line x1="36.499722" y1="9.391247" x2="36.457793" y2="9.419497" /><line x1="36.544705" y1="9.363651" x2="36.499722" y2="9.391247" /><line x1="36.593159" y1="9.336712" x2="36.544705" y2="9.363651" /><line x1="36.645580" y1="9.310450" x2="36.593159" y2="9.336712" /><line x1="36.702574" y1="9.284917" x2="36.645580" y2="9.310450" /><line x1="36.764864" y1="9.260200" x2="36.702574" y2="9.284917" /><line x1="36.833117" y1="9.236503" x2="36.764864" y2="9.260200" /><line x1="36.900147" y1="9.216295" x2="36.833117" y2="9.236503" /><line x1="36.973461" y1="9.197290" x2="36.900147" y2="9.216295" /><line x1="37.054058" y1="9.179733" x2="36.973461" y2="9.197290" /><line x1="37.143155" y1="9.163947" x2="37.054058" y2="9.179733" /><line x1="37.242245" y1="9.150365" x2="37.143155" y2="9.163947" /><line x1="37.353167" y1="9.139554" x2="37.242245" y2="9.150365" /><line x1="37.478224" y1="9.132282" x2="37.353167" y2="9.139554" /><line x1="37.620292" y1="9.129574" x2="37.478224" y2="9.132282" /><line x1="40.552188" y1="16.739255" x2="40.552675" y2="16.755588" /><line x1="40.549279" y1="16.714563" x2="40.552188" y2="16.739255" /><line x1="40.544685" y1="16.695444" x2="40.549279" y2="16.714563" /><line x1="40.536853" y1="16.675529" x2="40.544685" y2="16.695444" /><line x1="40.524844" y1="16.656255" x2="40.536853" y2="16.675529" /><line x1="40.510250" y1="16.641009" x2="40.524844" y2="16.656255" /><line x1="40.491280" y1="16.628112" x2="40.510250" y2="16.641009" /><line x1="40.470966" y1="16.619409" x2="40.491280" y2="16.628112" /><line x1="40.451465" y1="16.614299" x2="40.470966" y2="16.619409" /><line x1="40.427740" y1="16.611096" x2="40.451465" y2="16.614299" /><line x1="40.407418" y1="16.610331" x2="40.427740" y2="16.611096" /><line x1="9.496777" y1="40.816173" x2="9.515371" y2="40.926417" /><line x1="14.097628" y1="41.173964" x2="14.060363" y2="41.215950" /><line x1="10.714233" y1="40.735004" x2="10.701635" y2="40.666704" /><line x1="9.515371" y1="40.926417" x2="9.537580" y2="41.031879" /><line x1="10.728768" y1="40.798297" x2="10.714233" y2="40.735004" /><line x1="9.537580" y1="41.031879" x2="9.563228" y2="41.133121" /><line x1="10.745017" y1="40.857266" x2="10.728768" y2="40.798297" /><line x1="9.563228" y1="41.133121" x2="9.592206" y2="41.230639" /><line x1="10.762814" y1="40.912477" x2="10.745017" y2="40.857266" /><line x1="9.592206" y1="41.230639" x2="9.624454" y2="41.324877" /><line x1="10.782040" y1="40.964411" x2="10.762814" y2="40.912477" /><line x1="9.624454" y1="41.324877" x2="9.659963" y2="41.416233" /><line x1="10.802616" y1="41.013474" x2="10.782040" y2="40.964411" /><line x1="9.659963" y1="41.416233" x2="9.698771" y2="41.505074" /><line x1="10.824496" y1="41.060009" x2="10.802616" y2="41.013474" /><line x1="9.698771" y1="41.505074" x2="9.740968" y2="41.591730" /><line x1="10.847659" y1="41.104313" x2="10.824496" y2="41.060009" /><line x1="14.060363" y1="41.215950" x2="14.020178" y2="41.257544" /><line x1="14.020178" y1="41.257544" x2="13.976743" y2="41.298840" /><line x1="13.976743" y1="41.298840" x2="13.929730" y2="41.339874" /><line x1="13.929730" y1="41.339874" x2="13.883075" y2="41.377346" /><line x1="10.533688" y1="40.214256" x2="9.608630" y2="40.214256" /><line x1="9.608630" y1="40.214256" x2="9.592393" y2="40.214740" /><line x1="9.464991" y1="40.338452" x2="9.464230" y2="40.358655" /><line x1="9.592393" y1="40.214740" x2="9.575293" y2="40.216440" /><line x1="9.468174" y1="40.314868" x2="9.464991" y2="40.338452" /><line x1="9.575293" y1="40.216440" x2="9.554693" y2="40.220533" /><line x1="9.473254" y1="40.295482" x2="9.468174" y2="40.314868" /><line x1="9.554693" y1="40.220533" x2="9.533533" y2="40.227885" /><line x1="9.481907" y1="40.275289" x2="9.473254" y2="40.295482" /><line x1="9.533533" y1="40.227885" x2="9.513349" y2="40.239338" /><line x1="9.513349" y1="40.239338" x2="9.494727" y2="40.256430" /><line x1="9.494727" y1="40.256430" x2="9.481907" y2="40.275289" /><line x1="9.482034" y1="40.700518" x2="9.496777" y2="40.816173" /><line x1="10.701635" y1="40.666704" x2="10.691303" y2="40.592800" /><line x1="9.471457" y1="40.578733" x2="9.482034" y2="40.700518" /><line x1="10.691303" y1="40.592800" x2="10.684263" y2="40.520901" /><line x1="9.465448" y1="40.449998" x2="9.471457" y2="40.578733" /><line x1="10.684263" y1="40.520901" x2="10.679715" y2="40.443135" /><line x1="9.464230" y1="40.358655" x2="9.465448" y2="40.449998" /><line x1="10.679715" y1="40.443135" x2="10.678087" y2="40.358655" /><line x1="10.678087" y1="40.358655" x2="10.677603" y2="40.342419" /><line x1="10.553889" y1="40.215017" x2="10.533688" y2="40.214256" /><line x1="10.677603" y1="40.342419" x2="10.675902" y2="40.325319" /><line x1="10.577475" y1="40.218200" x2="10.553889" y2="40.215017" /><line x1="10.675902" y1="40.325319" x2="10.671810" y2="40.304718" /><line x1="10.596861" y1="40.223281" x2="10.577475" y2="40.218200" /><line x1="10.671810" y1="40.304718" x2="10.664458" y2="40.283559" /><line x1="10.617055" y1="40.231932" x2="10.596861" y2="40.223281" /><line x1="10.664458" y1="40.283559" x2="10.653006" y2="40.263374" /><line x1="10.653006" y1="40.263374" x2="10.635912" y2="40.244753" /><line x1="10.635912" y1="40.244753" x2="10.617055" y2="40.231932" /><line x1="9.740968" y1="41.591730" x2="9.789128" y2="41.680811" /><line x1="9.789128" y1="41.680811" x2="9.815951" y2="41.726559" /><line x1="10.872109" y1="41.146639" x2="10.847659" y2="41.104313" /><line x1="9.815951" y1="41.726559" x2="9.860673" y2="41.797297" /><line x1="10.897869" y1="41.187208" x2="10.872109" y2="41.146639" /><line x1="9.860673" y1="41.797297" x2="9.907956" y2="41.865671" /><line x1="10.924984" y1="41.226212" x2="10.897869" y2="41.187208" /><line x1="9.907956" y1="41.865671" x2="9.957950" y2="41.931925" /><line x1="10.953519" y1="41.263817" x2="10.924984" y2="41.226212" /><line x1="9.957950" y1="41.931925" x2="10.010843" y2="41.996277" /><line x1="10.983556" y1="41.300165" x2="10.953519" y2="41.263817" /><line x1="10.010843" y1="41.996277" x2="10.066870" y2="42.058926" /><line x1="11.015199" y1="41.335388" x2="10.983556" y2="41.300165" /><line x1="10.066870" y1="42.058926" x2="10.126307" y2="42.120037" /><line x1="11.048572" y1="41.369591" x2="11.015199" y2="41.335388" /><line x1="11.075568" y1="42.683701" x2="11.203607" y2="42.723270" /><line x1="11.526031" y1="41.662403" x2="11.466563" y2="41.639486" /><line x1="10.957960" y1="42.641674" x2="11.075568" y2="42.683701" /><line x1="11.466563" y1="41.639486" x2="11.411162" y2="41.615551" /><line x1="10.849351" y1="42.597485" x2="10.957960" y2="42.641674" /><line x1="11.411162" y1="41.615551" x2="11.359367" y2="41.590662" /><line x1="10.770593" y1="42.561872" x2="10.849351" y2="42.597485" /><line x1="11.359367" y1="41.590662" x2="11.310778" y2="41.564857" /><line x1="10.675261" y1="42.514544" x2="10.770593" y2="42.561872" /><line x1="11.310778" y1="41.564857" x2="11.265051" y2="41.538153" /><line x1="10.578343" y1="42.461357" x2="10.675261" y2="42.514544" /><line x1="11.265051" y1="41.538153" x2="11.221893" y2="41.510542" /><line x1="10.488788" y1="42.407080" x2="10.578343" y2="42.461357" /><line x1="11.221893" y1="41.510542" x2="11.181046" y2="41.482004" /><line x1="10.405851" y1="42.351826" x2="10.488788" y2="42.407080" /><line x1="11.181046" y1="41.482004" x2="11.142298" y2="41.452511" /><line x1="10.328748" y1="42.295563" x2="10.405851" y2="42.351826" /><line x1="11.142298" y1="41.452511" x2="11.103388" y2="41.420216" /><line x1="11.103388" y1="41.420216" x2="11.083820" y2="41.402868" /><line x1="10.256812" y1="42.238239" x2="10.328748" y2="42.295563" /><line x1="11.083820" y1="41.402868" x2="11.048572" y2="41.369591" /><line x1="10.189489" y1="42.179768" x2="10.256812" y2="42.238239" /><line x1="10.126307" y1="42.120037" x2="10.189489" y2="42.179768" /><line x1="13.883075" y1="41.377346" x2="13.834633" y2="41.413221" /><line x1="13.834633" y1="41.413221" x2="13.779597" y2="41.450592" /><line x1="13.779597" y1="41.450592" x2="13.720881" y2="41.486916" /><line x1="13.720881" y1="41.486916" x2="13.658001" y2="41.522200" /><line x1="13.658001" y1="41.522200" x2="13.590381" y2="41.556421" /><line x1="13.590381" y1="41.556421" x2="13.517334" y2="41.589523" /><line x1="13.517334" y1="41.589523" x2="13.438030" y2="41.621403" /><line x1="13.438030" y1="41.621403" x2="13.351474" y2="41.651903" /><line x1="13.351474" y1="41.651903" x2="13.256752" y2="41.680702" /><line x1="13.256752" y1="41.680702" x2="13.163874" y2="41.704796" /><line x1="14.132249" y1="41.131481" x2="14.097628" y2="41.173964" /><line x1="14.164456" y1="41.088388" x2="14.132249" y2="41.131481" /><line x1="14.194441" y1="41.044565" x2="14.164456" y2="41.088388" /><line x1="14.222356" y1="40.999876" x2="14.194441" y2="41.044565" /><line x1="14.248329" y1="40.954182" x2="14.222356" y2="40.999876" /><line x1="14.272454" y1="40.907327" x2="14.248329" y2="40.954182" /><line x1="14.294800" y1="40.859142" x2="14.272454" y2="40.907327" /><line x1="14.315413" y1="40.809443" x2="14.294800" y2="40.859142" /><line x1="14.334313" y1="40.758022" x2="14.315413" y2="40.809443" /><line x1="14.351491" y1="40.704654" x2="14.334313" y2="40.758022" /><line x1="14.366915" y1="40.649082" x2="14.351491" y2="40.704654" /><line x1="14.380523" y1="40.591022" x2="14.366915" y2="40.649082" /><line x1="14.392219" y1="40.530149" x2="14.380523" y2="40.591022" /><line x1="14.401872" y1="40.466095" x2="14.392219" y2="40.530149" /><line x1="14.409307" y1="40.398443" x2="14.401872" y2="40.466095" /><line x1="14.414303" y1="40.326710" x2="14.409307" y2="40.398443" /><line x1="14.416574" y1="40.250338" x2="14.414303" y2="40.326710" /><line x1="14.416676" y1="40.230049" x2="14.416574" y2="40.250338" /><line x1="11.792679" y1="42.838617" x2="11.972754" y2="42.856203" /><line x1="12.006515" y1="41.770054" x2="11.907106" y2="41.756914" /><line x1="11.629269" y1="42.816177" x2="11.792679" y2="42.838617" /><line x1="11.907106" y1="41.756914" x2="11.816944" y2="41.741400" /><line x1="11.480152" y1="42.789717" x2="11.629269" y2="42.816177" /><line x1="11.816944" y1="41.741400" x2="11.734740" y2="41.723917" /><line x1="11.343369" y1="42.759874" x2="11.480152" y2="42.789717" /><line x1="11.734740" y1="41.723917" x2="11.659426" y2="41.704775" /><line x1="11.203607" y1="42.723270" x2="11.343369" y2="42.759874" /><line x1="11.659426" y1="41.704775" x2="11.590106" y2="41.684212" /><line x1="11.590106" y1="41.684212" x2="11.526031" y2="41.662403" /><line x1="13.163874" y1="41.704796" x2="13.062395" y2="41.726917" /><line x1="13.062395" y1="41.726917" x2="12.950941" y2="41.746679" /><line x1="12.950941" y1="41.746679" x2="12.827846" y2="41.763569" /><line x1="12.827846" y1="41.763569" x2="12.691063" y2="41.776913" /><line x1="12.691063" y1="41.776913" x2="12.538063" y2="41.785820" /><line x1="12.538063" y1="41.785820" x2="12.365753" y2="41.789110" /><line x1="12.172400" y1="42.867842" x2="12.395084" y2="42.872107" /><line x1="12.365753" y1="41.789110" x2="12.239663" y2="41.786936" /><line x1="11.972754" y1="42.856203" x2="12.172400" y2="42.867842" /><line x1="12.239663" y1="41.786936" x2="12.116730" y2="41.780291" /><line x1="12.116730" y1="41.780291" x2="12.006515" y2="41.770054" /><line x1="34.715630" y1="10.584863" x2="34.715142" y2="10.568530" /><line x1="34.718539" y1="10.609555" x2="34.715630" y2="10.584863" /><line x1="34.723132" y1="10.628675" x2="34.718539" y2="10.609555" /><line x1="34.730966" y1="10.648589" x2="34.723132" y2="10.628675" /><line x1="34.742974" y1="10.667863" x2="34.730966" y2="10.648589" /><line x1="34.757568" y1="10.683109" x2="34.742974" y2="10.667863" /><line x1="34.776538" y1="10.696007" x2="34.757568" y2="10.683109" /><line x1="34.796851" y1="10.704710" x2="34.776538" y2="10.696007" /><line x1="34.816353" y1="10.709820" x2="34.796851" y2="10.704710" /><line x1="34.840077" y1="10.713023" x2="34.816353" y2="10.709820" /><line x1="34.860400" y1="10.713787" x2="34.840077" y2="10.713023" /><line x1="36.964728" y1="14.647582" x2="36.856555" y2="14.736736" /><line x1="37.215356" y1="14.454021" x2="36.964728" y2="14.647582" /><line x1="37.490942" y1="14.259603" x2="37.215356" y2="14.454021" /><line x1="37.764414" y1="14.083078" x2="37.490942" y2="14.259603" /><line x1="38.260048" y1="13.772421" x2="37.764414" y2="14.083078" /><line x1="38.759654" y1="13.450982" x2="38.260048" y2="13.772421" /><line x1="36.223554" y1="15.474689" x2="36.188144" y2="15.535653" /><line x1="36.285471" y1="15.375812" x2="36.223554" y2="15.474689" /><line x1="36.351774" y1="15.279112" x2="36.285471" y2="15.375812" /><line x1="36.422781" y1="15.184292" x2="36.351774" y2="15.279112" /><line x1="36.498878" y1="15.091081" x2="36.422781" y2="15.184292" /><line x1="36.580531" y1="14.999228" x2="36.498878" y2="15.091081" /><line x1="36.668305" y1="14.908504" x2="36.580531" y2="14.999228" /><line x1="36.762769" y1="14.818794" x2="36.668305" y2="14.908504" /><line x1="36.856555" y1="14.736736" x2="36.762769" y2="14.818794" /><line x1="38.957353" y1="13.316359" x2="38.759654" y2="13.450982" /><line x1="39.146285" y1="13.176050" x2="38.957353" y2="13.316359" /><line x1="39.327067" y1="13.029895" x2="39.146285" y2="13.176050" /><line x1="39.500431" y1="12.877497" x2="39.327067" y2="13.029895" /><line x1="39.675457" y1="12.709942" x2="39.500431" y2="12.877497" /><line x1="40.367120" y1="11.699505" x2="40.343868" y2="11.751017" /><line x1="40.404913" y1="11.607540" x2="40.367120" y2="11.699505" /><line x1="40.440538" y1="11.509028" x2="40.404913" y2="11.607540" /><line x1="40.473793" y1="11.402988" x2="40.440538" y2="11.509028" /><line x1="40.504388" y1="11.288249" x2="40.473793" y2="11.402988" /><line x1="40.531848" y1="11.163761" x2="40.504388" y2="11.288249" /><line x1="40.553430" y1="11.042278" x2="40.531848" y2="11.163761" /><line x1="40.571536" y1="10.910581" x2="40.553430" y2="11.042278" /><line x1="40.585567" y1="10.767097" x2="40.571536" y2="10.910581" /><line x1="40.594744" y1="10.609932" x2="40.585567" y2="10.767097" /><line x1="40.598068" y1="10.436892" x2="40.594744" y2="10.609932" /><line x1="40.598001" y1="10.414209" x2="40.598068" y2="10.436892" /><line x1="40.594320" y1="10.268414" x2="40.598001" y2="10.414209" /><line x1="40.585707" y1="10.135384" x2="40.594320" y2="10.268414" /><line x1="40.572861" y1="10.012403" x2="40.585707" y2="10.135384" /><line x1="40.556341" y1="9.898194" x2="40.572861" y2="10.012403" /><line x1="40.536585" y1="9.791674" x2="40.556341" y2="9.898194" /><line x1="40.513934" y1="9.691915" x2="40.536585" y2="9.791674" /><line x1="40.488650" y1="9.598124" x2="40.513934" y2="9.691915" /><line x1="40.460933" y1="9.509615" x2="40.488650" y2="9.598124" /><line x1="40.430923" y1="9.425797" x2="40.460933" y2="9.509615" /><line x1="40.398714" y1="9.346151" x2="40.430923" y2="9.425797" /><line x1="40.364359" y1="9.270225" x2="40.398714" y2="9.346151" /><line x1="40.327873" y1="9.197618" x2="40.364359" y2="9.270225" /><line x1="40.289238" y1="9.127983" x2="40.327873" y2="9.197618" /><line x1="40.248398" y1="9.061008" x2="40.289238" y2="9.127983" /><line x1="40.205266" y1="8.996416" x2="40.248398" y2="9.061008" /><line x1="40.159725" y1="8.933964" x2="40.205266" y2="8.996416" /><line x1="40.111620" y1="8.873430" x2="40.159725" y2="8.933964" /><line x1="40.060758" y1="8.814627" x2="40.111620" y2="8.873430" /><line x1="40.006906" y1="8.757380" x2="40.060758" y2="8.814627" /><line x1="39.949817" y1="8.701572" x2="40.006906" y2="8.757380" /><line x1="39.893343" y1="8.650679" x2="39.949817" y2="8.701572" /><line x1="39.716030" y1="12.668658" x2="39.675457" y2="12.709942" /><line x1="39.808963" y1="12.568380" x2="39.716030" y2="12.668658" /><line x1="39.897503" y1="12.464535" x2="39.808963" y2="12.568380" /><line x1="39.981936" y1="12.356744" x2="39.897503" y2="12.464535" /><line x1="40.062493" y1="12.244567" x2="39.981936" y2="12.356744" /><line x1="40.139353" y1="12.127500" x2="40.062493" y2="12.244567" /><line x1="40.212637" y1="12.004958" x2="40.139353" y2="12.127500" /><line x1="40.282362" y1="11.876369" x2="40.212637" y2="12.004958" /><line x1="40.343868" y1="11.751017" x2="40.282362" y2="11.876369" /><line x1="39.349338" y1="10.904192" x2="39.356593" y2="10.838281" /><line x1="38.545476" y1="12.168669" x2="38.657901" y2="12.070175" /><line x1="34.818221" y1="15.564993" x2="34.855880" y2="15.465000" /><line x1="34.783822" y1="15.669532" x2="34.818221" y2="15.564993" /><line x1="39.339644" y1="10.968163" x2="39.349338" y2="10.904192" /><line x1="39.255759" y1="11.267610" x2="39.277316" y2="11.209700" /><line x1="35.803619" y1="14.164814" x2="36.021591" y2="13.973067" /><line x1="38.657901" y1="12.070175" x2="38.758315" y2="11.974165" /><line x1="38.758315" y1="11.974165" x2="38.848106" y2="11.880527" /><line x1="38.848106" y1="11.880527" x2="38.928690" y2="11.788885" /><line x1="38.928690" y1="11.788885" x2="39.001225" y2="11.698876" /><line x1="34.971034" y1="15.215625" x2="35.039951" y2="15.088506" /><line x1="35.039951" y1="15.088506" x2="35.112800" y2="14.966634" /><line x1="35.112800" y1="14.966634" x2="35.189640" y2="14.849498" /><line x1="36.021591" y1="13.973067" x2="36.251968" y2="13.786539" /><line x1="36.251968" y1="13.786539" x2="36.508164" y2="13.596239" /><line x1="36.508164" y1="13.596239" x2="37.009473" y2="13.247281" /><line x1="40.548707" y1="17.628057" x2="40.543597" y2="17.647558" /><line x1="40.543597" y1="17.647558" x2="40.534894" y2="17.667871" /><line x1="40.534894" y1="17.667871" x2="40.521996" y2="17.686841" /><line x1="40.521996" y1="17.686841" x2="40.506751" y2="17.701436" /><line x1="40.506751" y1="17.701436" x2="40.487477" y2="17.713444" /><line x1="34.855880" y1="15.465000" x2="34.896727" y2="15.368998" /><line x1="34.896727" y1="15.368998" x2="34.910333" y2="15.339329" /><line x1="34.910333" y1="15.339329" x2="34.971034" y2="15.215625" /><line x1="37.009473" y1="13.247281" x2="37.510213" y2="12.913075" /><line x1="37.510213" y1="12.913075" x2="38.003107" y2="12.577727" /><line x1="38.003107" y1="12.577727" x2="38.432825" y2="12.259418" /><line x1="38.432825" y1="12.259418" x2="38.545476" y2="12.168669" /><line x1="34.698558" y1="17.698588" x2="34.683964" y2="17.683342" /><line x1="34.717526" y1="17.711485" x2="34.698558" y2="17.698588" /><line x1="34.683964" y1="17.683342" x2="34.671954" y2="17.664069" /><line x1="34.659529" y1="17.625034" x2="34.656619" y2="17.600342" /><line x1="34.664122" y1="17.644154" x2="34.659529" y2="17.625034" /><line x1="34.658930" y1="16.436307" x2="34.667990" y2="16.286943" /><line x1="39.319183" y1="8.301867" x2="39.417000" y2="8.345158" /><line x1="39.417000" y1="8.345158" x2="39.506748" y2="8.389622" /><line x1="39.277316" y1="11.209700" x2="39.296432" y2="11.151010" /><line x1="39.296432" y1="11.151010" x2="39.313174" y2="11.091335" /><line x1="39.313174" y1="11.091335" x2="39.327579" y2="11.030462" /><line x1="39.327579" y1="11.030462" x2="39.339644" y2="10.968163" /><line x1="39.175244" y1="11.438554" x2="39.204884" y2="11.381850" /><line x1="39.204884" y1="11.381850" x2="39.231662" y2="11.324930" /><line x1="39.231662" y1="11.324930" x2="39.255759" y2="11.267610" /><line x1="34.781067" y1="17.728501" x2="34.757342" y2="17.725299" /><line x1="34.757342" y1="17.725299" x2="34.737841" y2="17.720189" /><line x1="34.737841" y1="17.720189" x2="34.717526" y2="17.711485" /><line x1="34.671954" y1="17.664069" x2="34.664122" y2="17.644154" /><line x1="34.715142" y1="10.568530" x2="34.718019" y2="10.419360" /><line x1="34.718019" y1="10.419360" x2="34.726068" y2="10.281796" /><line x1="34.726068" y1="10.281796" x2="34.738544" y2="10.154391" /><line x1="34.738544" y1="10.154391" x2="34.756860" y2="10.023372" /><line x1="34.756860" y1="10.023372" x2="34.779227" y2="9.902069" /><line x1="34.779227" y1="9.902069" x2="34.805077" y2="9.789454" /><line x1="38.122698" y1="9.161115" x2="38.004117" y2="9.147238" /><line x1="38.004117" y1="9.147238" x2="37.870100" y2="9.136738" /><line x1="37.870100" y1="9.136738" x2="37.717532" y2="9.130610" /><line x1="39.001225" y1="11.698876" x2="39.066657" y2="11.610167" /><line x1="39.066657" y1="11.610167" x2="39.109179" y2="11.547883" /><line x1="39.109179" y1="11.547883" x2="39.142544" y2="11.495180" /><line x1="39.142544" y1="11.495180" x2="39.175244" y2="11.438554" /><line x1="35.189640" y1="14.849498" x2="35.270636" y2="14.736581" /><line x1="35.270636" y1="14.736581" x2="35.356005" y2="14.627436" /><line x1="35.356005" y1="14.627436" x2="35.446025" y2="14.521669" /><line x1="40.552675" y1="17.584009" x2="40.551909" y2="17.604331" /><line x1="40.551909" y1="17.604331" x2="40.548707" y2="17.628057" /><line x1="37.717532" y1="9.130610" x2="37.620292" y2="9.129574" /><line x1="40.487477" y1="17.713444" x2="40.467562" y2="17.721277" /><line x1="40.467562" y1="17.721277" x2="40.448442" y2="17.725871" /><line x1="40.448442" y1="17.725871" x2="40.423751" y2="17.728780" /><line x1="34.656619" y1="17.600342" x2="34.656132" y2="17.584009" /><line x1="34.656132" y1="17.584009" x2="34.656132" y2="16.580825" /><line x1="34.656132" y1="16.580825" x2="34.658930" y2="16.436307" /><line x1="34.667990" y1="16.286943" x2="34.682516" y2="16.147643" /><line x1="34.682516" y1="16.147643" x2="34.701818" y2="16.017367" /><line x1="34.701818" y1="16.017367" x2="34.725378" y2="15.894914" /><line x1="39.506748" y1="8.389622" x2="39.589499" y2="8.435160" /><line x1="39.589499" y1="8.435160" x2="39.666149" y2="8.481730" /><line x1="39.666149" y1="8.481730" x2="39.737441" y2="8.529327" /><line x1="35.446025" y1="14.521669" x2="35.541036" y2="14.418940" /><line x1="35.541036" y1="14.418940" x2="35.585553" y2="14.373593" /><line x1="35.585553" y1="14.373593" x2="35.803619" y2="14.164814" /><line x1="40.423751" y1="17.728780" x2="40.407418" y2="17.729267" /><line x1="40.407418" y1="17.729267" x2="34.801390" y2="17.729267" /><line x1="34.801390" y1="17.729267" x2="34.781067" y2="17.728501" /><line x1="34.752808" y1="15.779258" x2="34.783822" y2="15.669532" /><line x1="34.725378" y1="15.894914" x2="34.752808" y2="15.779258" /><line x1="34.805077" y1="9.789454" x2="34.834018" y2="9.684357" /><line x1="34.834018" y1="9.684357" x2="34.865765" y2="9.585793" /><line x1="34.865765" y1="9.585793" x2="34.900113" y2="9.492935" /><line x1="38.408348" y1="9.216401" x2="38.323002" y2="9.196188" /><line x1="38.323002" y1="9.196188" x2="38.228326" y2="9.177617" /><line x1="38.228326" y1="9.177617" x2="38.122698" y2="9.161115" /><line x1="38.620609" y1="9.284135" x2="38.556146" y2="9.260581" /><line x1="38.556146" y1="9.260581" x2="38.485697" y2="9.237947" /><line x1="38.485697" y1="9.237947" x2="38.408348" y2="9.216401" /><line x1="34.900113" y1="9.492935" x2="34.936931" y2="9.405082" /><line x1="34.936931" y1="9.405082" x2="34.976133" y2="9.321631" /><line x1="34.976133" y1="9.321631" x2="35.017693" y2="9.242072" /><line x1="35.017693" y1="9.242072" x2="35.048781" y2="9.187450" /><line x1="35.048781" y1="9.187450" x2="35.089401" y2="9.121494" /><line x1="35.089401" y1="9.121494" x2="35.134888" y2="9.053930" /><line x1="35.134888" y1="9.053930" x2="35.182609" y2="8.989067" /><line x1="35.182609" y1="8.989067" x2="35.232662" y2="8.926655" /><line x1="35.232662" y1="8.926655" x2="35.285192" y2="8.866447" /><line x1="39.737441" y1="8.529327" x2="39.803999" y2="8.577980" /><line x1="39.803999" y1="8.577980" x2="39.866346" y2="8.627739" /><line x1="39.866346" y1="8.627739" x2="39.893343" y2="8.650679" /><line x1="38.785144" y1="9.359208" x2="38.734515" y2="9.333523" /><line x1="38.734515" y1="9.333523" x2="38.679851" y2="9.308477" /><line x1="38.679851" y1="9.308477" x2="38.620609" y2="9.284135" /><line x1="36.167560" y1="8.286150" x2="36.278501" y2="8.246454" /><line x1="35.285192" y1="8.866447" x2="35.340379" y2="8.808237" /><line x1="35.340379" y1="8.808237" x2="35.398438" y2="8.751842" /><line x1="35.398438" y1="8.751842" x2="35.459619" y2="8.697111" /><line x1="39.022608" y1="9.523630" x2="38.990328" y2="9.495673" /><line x1="38.990328" y1="9.495673" x2="38.955953" y2="9.468266" /><line x1="38.955953" y1="9.468266" x2="38.919664" y2="9.441651" /><line x1="38.919664" y1="9.441651" x2="38.876054" y2="9.412369" /><line x1="38.876054" y1="9.412369" x2="38.832204" y2="9.385503" /><line x1="38.832204" y1="9.385503" x2="38.785144" y2="9.359208" /><line x1="38.992763" y1="8.189302" x2="39.107291" y2="8.223822" /><line x1="39.107291" y1="8.223822" x2="39.212307" y2="8.260017" /><line x1="39.212307" y1="8.260017" x2="39.319183" y2="8.301867" /><line x1="35.459619" y1="8.697111" x2="35.524218" y2="8.643917" /><line x1="35.524218" y1="8.643917" x2="35.592574" y2="8.592155" /><line x1="35.592574" y1="8.592155" x2="35.665084" y2="8.541752" /><line x1="39.108657" y1="9.611360" x2="39.081618" y2="9.581405" /><line x1="39.081618" y1="9.581405" x2="39.052982" y2="9.552186" /><line x1="39.052982" y1="9.552186" x2="39.022608" y2="9.523630" /><line x1="38.575760" y1="8.099522" x2="38.728967" y2="8.126659" /><line x1="38.728967" y1="8.126659" x2="38.867246" y2="8.156775" /><line x1="38.867246" y1="8.156775" x2="38.992763" y2="8.189302" /><line x1="39.356593" y1="10.838281" x2="39.361301" y2="10.770135" /><line x1="39.361301" y1="10.770135" x2="39.363300" y2="10.701217" /><line x1="39.363300" y1="10.701217" x2="39.363380" y2="10.684282" /><line x1="39.363380" y1="10.684282" x2="39.363380" y2="10.380150" /><line x1="39.363380" y1="10.380150" x2="39.362098" y2="10.313701" /><line x1="39.362098" y1="10.313701" x2="39.358497" y2="10.252174" /><line x1="35.665084" y1="8.541752" x2="35.742203" y2="8.492649" /><line x1="35.742203" y1="8.492649" x2="35.824459" y2="8.444826" /><line x1="35.824459" y1="8.444826" x2="35.912467" y2="8.398291" /><line x1="36.278501" y1="8.246454" x2="36.398950" y2="8.208666" /><line x1="36.398950" y1="8.208666" x2="36.530106" y2="8.173136" /><line x1="36.530106" y1="8.173136" x2="36.673588" y2="8.140257" /><line x1="39.181277" y1="9.706552" x2="39.158396" y2="9.673829" /><line x1="39.158396" y1="9.673829" x2="39.134216" y2="9.642135" /><line x1="39.134216" y1="9.642135" x2="39.108657" y2="9.611360" /><line x1="35.912467" y1="8.398291" x2="36.006942" y2="8.353079" /><line x1="36.006942" y1="8.353079" x2="36.057639" y2="8.330658" /><line x1="36.057639" y1="8.330658" x2="36.167560" y2="8.286150" /><line x1="37.996583" y1="8.044846" x2="38.213284" y2="8.057444" /><line x1="38.213284" y1="8.057444" x2="38.404965" y2="8.076117" /><line x1="38.404965" y1="8.076117" x2="38.575760" y2="8.099522" /><line x1="39.242694" y1="9.812256" x2="39.223388" y2="9.775610" /><line x1="39.223388" y1="9.775610" x2="39.202926" y2="9.740431" /><line x1="39.202926" y1="9.740431" x2="39.181277" y2="9.706552" /><line x1="36.673588" y1="8.140257" x2="36.831329" y2="8.110548" /><line x1="36.831329" y1="8.110548" x2="37.005667" y2="8.084698" /><line x1="37.005667" y1="8.084698" x2="37.199445" y2="8.063595" /><line x1="39.293699" y1="9.933037" x2="39.277867" y2="9.890733" /><line x1="39.277867" y1="9.890733" x2="39.260856" y2="9.850557" /><line x1="39.260856" y1="9.850557" x2="39.242694" y2="9.812256" /><line x1="39.333442" y1="10.075930" x2="39.321587" y2="10.025257" /><line x1="39.321587" y1="10.025257" x2="39.308301" y2="9.977762" /><line x1="39.308301" y1="9.977762" x2="39.293699" y2="9.933037" /><line x1="37.199445" y1="8.063595" x2="37.416148" y2="8.048420" /><line x1="37.416148" y1="8.048420" x2="37.660095" y2="8.040716" /><line x1="37.660095" y1="8.040716" x2="37.749660" y2="8.040142" /><line x1="37.749660" y1="8.040142" x2="37.996583" y2="8.044846" /><line x1="39.358497" y1="10.252174" x2="39.352157" y2="10.188846" /><line x1="39.352157" y1="10.188846" x2="39.343704" y2="10.130265" /><line x1="39.343704" y1="10.130265" x2="39.333442" y2="10.075930" /><line x1="9.494479" y1="17.849956" x2="9.475005" y2="17.836716" /><line x1="9.600651" y1="10.259155" x2="9.576363" y2="10.254680" /><line x1="9.534362" y1="9.183190" x2="9.544673" y2="9.163886" /><line x1="9.539083" y1="10.226371" x2="9.529099" y2="10.206313" /><line x1="9.529099" y1="10.206313" x2="9.523592" y2="10.186090" /><line x1="9.527749" y1="9.201817" x2="9.534362" y2="9.183190" /><line x1="13.069457" y1="8.044546" x2="13.089477" y2="8.049791" /><line x1="13.089477" y1="8.049791" x2="13.110330" y2="8.058727" /><line x1="13.110330" y1="8.058727" x2="13.129804" y2="8.071966" /><line x1="13.129804" y1="8.071966" x2="13.144785" y2="8.087616" /><line x1="15.353580" y1="16.766687" x2="15.365908" y2="16.786473" /><line x1="9.623049" y1="10.258698" x2="9.600651" y2="10.259155" /><line x1="9.462947" y1="16.763095" x2="9.478599" y2="16.748114" /><line x1="9.647141" y1="10.254913" x2="9.623049" y2="10.258698" /><line x1="9.498384" y1="16.735785" x2="9.518827" y2="16.727745" /><line x1="9.518827" y1="16.727745" x2="9.538456" y2="16.723029" /><line x1="9.538456" y1="16.723029" x2="9.554555" y2="16.720789" /><line x1="15.365908" y1="16.786473" x2="15.373949" y2="16.806918" /><line x1="15.373949" y1="16.806918" x2="15.378664" y2="16.826545" /><line x1="15.378664" y1="16.826545" x2="15.380904" y2="16.842646" /><line x1="15.380904" y1="16.842646" x2="15.382077" y2="16.862119" /><line x1="15.382077" y1="16.862119" x2="15.382151" y2="16.868660" /><line x1="15.382151" y1="16.868660" x2="15.382151" y2="17.719092" /><line x1="15.382151" y1="17.719092" x2="15.381365" y2="17.739954" /><line x1="15.381365" y1="17.739954" x2="15.378078" y2="17.764310" /><line x1="15.378078" y1="17.764310" x2="15.372831" y2="17.784330" /><line x1="15.372831" y1="17.784330" x2="15.363896" y2="17.805183" /><line x1="15.363896" y1="17.805183" x2="15.350657" y2="17.824656" /><line x1="9.475005" y1="17.836716" x2="9.460024" y2="17.821064" /><line x1="9.460024" y1="17.821064" x2="9.447697" y2="17.801279" /><line x1="9.447697" y1="17.801279" x2="9.439655" y2="17.780834" /><line x1="9.432240" y1="16.847797" x2="9.435527" y2="16.823442" /><line x1="9.435527" y1="16.823442" x2="9.440773" y2="16.803423" /><line x1="9.440773" y1="16.803423" x2="9.449707" y2="16.782569" /><line x1="9.449707" y1="16.782569" x2="9.462947" y2="16.763095" /><line x1="9.478599" y1="16.748114" x2="9.498384" y2="16.735785" /><line x1="11.905863" y1="9.547952" x2="9.669109" y2="10.249266" /><line x1="9.669109" y1="10.249266" x2="9.647141" y2="10.254913" /><line x1="9.554555" y1="16.720789" x2="9.574029" y2="16.719617" /><line x1="9.574029" y1="16.719617" x2="9.580570" y2="16.719543" /><line x1="9.580570" y1="16.719543" x2="11.905863" y2="16.719543" /><line x1="11.905863" y1="16.719543" x2="11.905863" y2="9.547952" /><line x1="9.523592" y1="10.186090" x2="9.520720" y2="10.164309" /><line x1="9.520720" y1="10.164309" x2="9.519991" y2="10.144419" /><line x1="9.519991" y1="10.144419" x2="9.519991" y2="9.263698" /><line x1="15.350657" y1="17.824656" x2="15.335007" y2="17.839639" /><line x1="15.335007" y1="17.839639" x2="15.315220" y2="17.851966" /><line x1="15.315220" y1="17.851966" x2="15.294776" y2="17.860007" /><line x1="9.559709" y1="17.867424" x2="9.535353" y2="17.864136" /><line x1="9.535353" y1="17.864136" x2="9.515332" y2="17.858890" /><line x1="9.515332" y1="17.858890" x2="9.494479" y2="17.849956" /><line x1="9.519991" y1="9.263698" x2="9.520813" y2="9.241894" /><line x1="9.520813" y1="9.241894" x2="9.522893" y2="9.224053" /><line x1="9.522893" y1="9.224053" x2="9.527749" y2="9.201817" /><line x1="9.544673" y1="9.163886" x2="9.559958" y2="9.145026" /><line x1="9.559958" y1="9.145026" x2="9.578664" y2="9.129898" /><line x1="9.578664" y1="9.129898" x2="9.597403" y2="9.119771" /><line x1="9.597403" y1="9.119771" x2="9.610859" y2="9.114580" /><line x1="15.338598" y1="16.751037" x2="15.353580" y2="16.766687" /><line x1="15.319124" y1="16.737797" x2="15.338598" y2="16.751037" /><line x1="13.157113" y1="8.107403" x2="13.165154" y2="8.127848" /><line x1="15.298271" y1="16.728862" x2="15.319124" y2="16.737797" /><line x1="13.144785" y1="8.087616" x2="13.157113" y2="8.107403" /><line x1="15.278252" y1="16.723617" x2="15.298271" y2="16.728862" /><line x1="15.253896" y1="16.720329" x2="15.278252" y2="16.723617" /><line x1="13.165154" y1="8.127848" x2="13.169869" y2="8.147474" /><line x1="15.233034" y1="16.719543" x2="15.253896" y2="16.720329" /><line x1="13.169869" y1="8.147474" x2="13.172111" y2="8.163574" /><line x1="15.294776" y1="17.860007" x2="15.275148" y2="17.864723" /><line x1="15.275148" y1="17.864723" x2="15.259048" y2="17.866963" /><line x1="15.259048" y1="17.866963" x2="15.239574" y2="17.868135" /><line x1="9.439655" y1="17.780834" x2="9.434940" y2="17.761207" /><line x1="9.434940" y1="17.761207" x2="9.432699" y2="17.745107" /><line x1="9.432699" y1="17.745107" x2="9.431526" y2="17.725633" /><line x1="9.610859" y1="9.114580" x2="12.726006" y2="8.070761" /><line x1="12.726006" y1="8.070761" x2="12.755032" y2="8.062733" /><line x1="12.755032" y1="8.062733" x2="12.783952" y2="8.056009" /><line x1="12.935701" y1="8.040472" x2="13.024240" y2="8.040472" /><line x1="13.024240" y1="8.040472" x2="13.045102" y2="8.041258" /><line x1="13.045102" y1="8.041258" x2="13.069457" y2="8.044546" /><line x1="13.172111" y1="8.163574" x2="13.173283" y2="8.183048" /><line x1="13.173283" y1="8.183048" x2="13.173356" y2="8.189589" /><line x1="13.173356" y1="8.189589" x2="13.173356" y2="16.719543" /><line x1="13.173356" y1="16.719543" x2="15.233034" y2="16.719543" /><line x1="15.239574" y1="17.868135" x2="15.233034" y2="17.868209" /><line x1="15.233034" y1="17.868209" x2="9.580570" y2="17.868209" /><line x1="9.580570" y1="17.868209" x2="9.559709" y2="17.867424" /><line x1="9.431526" y1="17.725633" x2="9.431453" y2="17.719092" /><line x1="9.431453" y1="17.719092" x2="9.431453" y2="16.868660" /><line x1="9.431453" y1="16.868660" x2="9.432240" y2="16.847797" /><line x1="12.848777" y1="8.045210" x2="12.874357" y2="8.042744" /><line x1="12.874357" y1="8.042744" x2="12.903014" y2="8.041090" /><line x1="12.903014" y1="8.041090" x2="12.935701" y2="8.040472" /><line x1="12.783952" y1="8.056009" x2="12.814844" y2="8.050114" /><line x1="12.814844" y1="8.050114" x2="12.823864" y2="8.048628" /><line x1="12.823864" y1="8.048628" x2="12.848777" y2="8.045210" /><line x1="9.576363" y1="10.254680" x2="9.554992" y2="10.243515" /><line x1="9.554992" y1="10.243515" x2="9.539083" y2="10.226371" />
  </g>
</svg>